<?xml version="1.0" encoding="UTF-8"?>
<svg id="Layer_1" data-name="Layer 1" xmlns="http://www.w3.org/2000/svg" viewBox="0 0 244.96 146.95">
  <defs>
    <style>
      .cls-1 {
        letter-spacing: .05em;
      }

      .cls-2 {
        letter-spacing: .05em;
      }

      .cls-3 {
        letter-spacing: .05em;
      }

      .cls-4 {
        letter-spacing: .04em;
      }

      .cls-5 {
        letter-spacing: .05em;
      }

      .cls-6 {
        fill: #fff;
      }

      .cls-7 {
        fill: #653b8c;
      }

      .cls-8 {
        fill: #602f84;
      }

      .cls-9 {
        letter-spacing: .06em;
      }

      .cls-10 {
        letter-spacing: .06em;
      }

      .cls-11 {
        fill: #502b77;
        font-family: AcuminVariableConcept, 'Acumin Variable Concept';
        font-size: 7.01px;
        font-variation-settings: 'wght' 194, 'wdth' 100, 'slnt' 0;
      }

      .cls-12 {
        fill: #c9d62b;
        stroke: #6e499c;
        stroke-miterlimit: 10;
        stroke-width: .75px;
      }
    </style>
  </defs>
  <text class="cls-11" transform="translate(34.46 73.33)"><tspan class="cls-1" x="0" y="0">B</tspan><tspan class="cls-4" x="4.74" y="0">A</tspan><tspan class="cls-9" x="9.54" y="0">K</tspan><tspan class="cls-5" x="14.24" y="0">E</tspan><tspan class="cls-10" x="18.64" y="0">R</tspan><tspan class="cls-4" x="23.44" y="0">Y &amp; </tspan><tspan class="cls-3" x="37.39" y="0">C</tspan><tspan class="cls-5" x="42.41" y="0">A</tspan><tspan class="cls-9" x="47.22" y="0">K</tspan><tspan class="cls-5" x="51.91" y="0">E </tspan><tspan class="cls-2" x="58.45" y="0">P</tspan><tspan class="cls-5" x="63.1" y="0">OPS</tspan></text>
  <g>
    <path class="cls-7" d="m56.27,27.63c.56.09.84.35.84.77.09.42-.16.68-.77.77-1.82.09-3.2.21-4.13.35-3.74.47-7.12,1.07-10.16,1.82-.05.19-.16.46-.35.81-.19.35-.3.62-.35.81-3.32,7.43-7.36,13.92-12.12,19.48-2.85,3.36-6.14,6.33-9.88,8.9-3.08,2.15-6.17,3.57-9.25,4.27-1.54.37-3.01.47-4.41.28-2.76-.47-4.2-2.06-4.34-4.76-.05-1.36.19-2.71.7-4.06.79-2.06,1.85-3.92,3.15-5.61,2.1-2.85,4.81-5.63,8.13-8.34,5.37-4.34,11.65-7.8,18.85-10.37,1.68-.61,4.25-1.42,7.71-2.45.61-.19,1.03-.56,1.26-1.12,2.05-5.7,3.18-10.88,3.36-15.55.09-2.06-.12-4.02-.63-5.89-.14-.65-.35-1.28-.63-1.89-1.17-2.76-3.36-4.04-6.59-3.85-1.64.05-3.55.54-5.75,1.47-3.36,1.45-6.38,3.27-9.04,5.47-6.31,4.81-11.87,10.72-16.68,17.73-.28.42-.64,1.03-1.09,1.82-.44.79-.76,1.33-.95,1.61-.05.09-.11.25-.18.46-.07.21-.13.36-.18.46.23.05.54.12.91.21.37.09.61.33.7.7.09.37,0,.68-.28.91-.79.79-1.66,1.26-2.59,1.4-.47.09-.84,0-1.12-.28-.33-.33-.47-.68-.42-1.05,0-.56.09-1.1.28-1.61.42-.98,1-2.15,1.75-3.5,1.22-2.2,2.83-4.51,4.83-6.94,4.34-5.37,8.94-9.9,13.8-13.59,2.76-2.1,5.63-3.83,8.62-5.18,2.01-1.03,3.92-1.66,5.75-1.89,1.35-.19,2.5-.21,3.43-.07,2.52.28,4.46,1.52,5.82,3.71.79,1.36,1.4,3.11,1.82,5.26.42,2.62.35,5.65-.21,9.11-.42,2.76-1.24,5.93-2.45,9.53-.09.19-.2.47-.32.84-.12.37-.22.68-.32.91.61-.09,1.47-.23,2.59-.42,1.12-.19,1.94-.33,2.45-.42,1.68-.28,4.02-.58,7.01-.91.28-.05.75-.07,1.4-.07Zm-16.75,5.4c.05-.09.16-.42.35-.98-.14.05-.34.07-.6.07s-.43.02-.53.07c-3.64,1.03-7.24,2.34-10.79,3.92-6.82,3.04-12.75,7.03-17.8,11.98-1.68,1.68-3.25,3.57-4.69,5.68-.89,1.4-1.56,2.8-2.03,4.2-.42,1.21-.58,2.27-.49,3.15.14,1.63.98,2.66,2.52,3.08l1.47.21c1.12.05,2.41-.16,3.85-.63,2.19-.56,4.67-1.73,7.43-3.5,3.6-2.34,7.05-5.47,10.37-9.39,4.2-4.95,7.85-10.91,10.93-17.87Z"/>
    <path class="cls-7" d="m65.8,28.26c.19.05.33.16.42.35.09.19.12.35.07.49,0,.51-.23.72-.7.63-1.03,0-1.8-.02-2.31-.07h-2.17c-.14,1.54-.71,3.23-1.72,5.08-1.01,1.85-2.18,2.77-3.54,2.77-.75,0-1.31-.4-1.68-1.19-.37-.75-.49-1.49-.35-2.24.37-2.8,1.4-5.26,3.08-7.36.61-.79,1.38-1.07,2.31-.84h.28c.84.33,1.35,1.05,1.54,2.17.98.14,2.1.16,3.36.07.37,0,.84.05,1.4.14Zm-9.04,6.8c.7-.47,1.31-1.39,1.82-2.77.51-1.38.77-2.53.77-3.47,0-.09-.05-.23-.14-.42-.09-.09-.23-.14-.42-.14-.93,0-1.87,1.64-2.8,4.9-.14.56-.19,1.05-.14,1.47,0,.23.12.4.35.49.23.09.42.07.56-.07Z"/>
    <path class="cls-7" d="m86.75,28.54c.05.28-.02.49-.21.63-.05,0-.12.04-.21.11-.09.07-.19.13-.28.18-2.8,1.73-5.61,3.74-8.41,6.03-.66.56-1.1,1.26-1.33,2.1-1.92,6.45-4.55,12.26-7.92,17.45-.75,1.07-1.47,1.94-2.17,2.59-.84,1.03-1.78,1.54-2.8,1.54-1.17,0-1.8-.7-1.89-2.1,0-3.13,1.26-6.59,3.78-10.37,2.52-3.78,5.26-7.01,8.2-9.67,1.07-.93,1.66-2.13,1.75-3.57.23-1.63.21-2.62-.07-2.94-.19-.23-.87.09-2.03.98-.33.23-.77.61-1.33,1.12-.56.51-.93.84-1.12.98-.33.28-.86.65-1.61,1.12-.47.23-.89.35-1.26.35-.93,0-1.61-.49-2.03-1.47-.7-1.59-.7-3.34,0-5.26,0-.05.02-.1.07-.18.05-.07.09-.13.14-.18.05-.05.07-.09.07-.14.37-.37.82-.49,1.33-.35.61.28.79.72.56,1.33-.09.33-.23.77-.42,1.33-.33,1.45-.3,2.41.07,2.87.09.09.19.12.28.07.09-.05.28-.18.56-.39.28-.21.47-.34.56-.39.19-.14.54-.44,1.05-.91.51-.47.93-.82,1.26-1.05,1.63-1.26,2.92-1.89,3.85-1.89,1.12,0,1.82.65,2.1,1.96.14,1.22.16,2.24.07,3.08.14-.05.32-.16.53-.35.21-.19.36-.3.46-.35.09-.09.54-.4,1.33-.91l2.59-1.89c.19-.09.44-.26.77-.49.33-.23.51-.37.56-.42h.07c1.31-.65,2.13-.98,2.45-.98s.54.14.63.42Zm-13.52,12.4l.7-2.24-1.89,2.17c-1.96,2.15-3.88,4.66-5.75,7.53-1.87,2.87-2.87,5.31-3.01,7.32-.05.14-.07.43-.07.88s.07.69.21.74c.47.05,1.03-.3,1.68-1.05,2.94-3.22,5.65-8.34,8.13-15.34Z"/>
    <path class="cls-7" d="m99.99,27.77c.37.09.7.28.98.56.19.19.19.44,0,.77-.09.33-.33.44-.7.35-1.17-.47-2.85-.33-5.04.42-3.04,1.03-6.03,2.64-8.97,4.83-.09.09-.23.19-.42.28.05,0,.14.02.28.07.14.05.26.08.35.11.09.02.16.03.21.03,2.01.33,2.99,1.64,2.94,3.92,0,1.12-.21,2.24-.63,3.36-1.4,3.74-3.48,7.05-6.24,9.95-.65.7-1.4,1.31-2.24,1.82-.79.37-1.48.41-2.07.11-.58-.3-.97-.88-1.16-1.72-.19-.98-.14-2.24.14-3.78.51-2.94,1.54-6.31,3.08-10.09,2.62-6.63,5.93-12.35,9.95-17.17,1.77-2.1,3.46-3.74,5.04-4.9.7-.51,1.52-1,2.45-1.47,1.07-.47,1.94-.42,2.59.14.65.51.79,1.33.42,2.45-.19.56-.37,1-.56,1.33-.28.42-.63.56-1.05.42-.61-.19-.87-.56-.77-1.12,0-.09.02-.25.07-.46.05-.21.09-.39.14-.53-.05-.09-.16-.13-.35-.1-.19.02-.33.08-.42.18-1.54,1.08-2.43,1.71-2.66,1.89-3.64,3.27-7.01,7.8-10.09,13.59.05.05.16.07.35.07s.33-.02.42-.07c2.71-1.59,4.74-2.73,6.1-3.43,1.73-.93,3.55-1.54,5.47-1.82.75-.05,1.54-.05,2.38,0Zm-13.73,8.97c-.94-.14-1.87-.14-2.8,0-1.22,2.52-2.2,5.12-2.94,7.78-.19.61-.63,2.34-1.33,5.18-.28,1.82-.23,2.8.14,2.94.37.14,1.03-.26,1.96-1.19,2.8-2.9,4.88-6.21,6.24-9.95.19-.65.3-1.17.35-1.54.09-.28.14-.7.14-1.26-.05-1.12-.63-1.77-1.75-1.96Z"/>
    <path class="cls-7" d="m118.28,28.61c.09.19.09.35,0,.49-.09.23-.21.35-.35.35-1.54.47-3.62,1.87-6.24,4.2-.51.47-1.05.87-1.61,1.19-1.5.89-2.52.51-3.08-1.12-.37-1.21-.61-2.15-.7-2.8l-.21-.21c-.14,0-.26.02-.35.07l-.35.35c-.28.23-.66.58-1.12,1.05-.47.47-.84.82-1.12,1.05-.84.84-1.61,1.5-2.31,1.96-.47.37-.93.63-1.4.77-.61.19-1.13.13-1.58-.18-.44-.3-.71-.76-.81-1.37-.05-.61,0-1.26.14-1.96.14-.51.61-1.73,1.4-3.64.14-.33.35-.61.63-.84.42-.33.82-.35,1.19-.07.51.33.65.75.42,1.26-.75,1.54-1.17,2.41-1.26,2.59-.61,1.4-.75,2.13-.42,2.17.33.05.65-.09.98-.42.33-.23.74-.6,1.23-1.09s.9-.85,1.23-1.09c.47-.47,1.12-1.07,1.96-1.82.23-.19.58-.42,1.05-.7,1.17-.47,1.91-.09,2.24,1.12.05.23.11.58.18,1.05.07.47.13.82.18,1.05.14,1.12.35,1.71.63,1.75.19.05.54-.12,1.05-.49.33-.23.79-.61,1.4-1.12.61-.51.93-.79.98-.84,1.17-1.07,2.5-1.98,3.99-2.73.09-.05.28-.13.56-.25.28-.12.47-.2.56-.25.42-.09.72.07.91.49Z"/>
    <path class="cls-7" d="m131.4,33.84s.05-.07.08-.1c1.34-2.57,3.76-4.49,6.37-5.91-.11-.02-.23-.01-.37.01-.47.09-.82.21-1.05.35-.37.19-.93.51-1.68.98-1.64,1.03-3.36,2.59-5.18,4.69-.11.13-.21.24-.32.37-.05.07-.09.14-.14.21-.25.37-.55.68-.88.95-1.39,1.58-2.4,2.66-3.01,3.24-3.32,3.55-5.54,4.65-6.66,3.29-.98-1.07-1.17-3.27-.56-6.59.09-.65.56-2.76,1.4-6.31.19-.84.65-1.73,1.4-2.66,4.44-5.46,8.31-11.79,11.63-18.99.47-1.03.91-2.27,1.33-3.71.19-.42.23-.93.14-1.54-.09-.51-.35-.88-.77-1.09s-.84-.18-1.26.1c-.65.37-1.19.84-1.61,1.4-1.17,1.54-2.1,2.87-2.8,3.99-3.36,5.56-6.14,11.31-8.34,17.24-.65,1.68-1.33,2.8-2.03,3.36-.61.42-.7.89-.28,1.4.33.37.4,1.01.21,1.89-.79,2.8-1.22,5.18-1.26,7.15,0,1.12.09,2.13.28,3.01.23,1.31.78,2.34,1.65,3.08.86.75,1.9.86,3.12.35.93-.33,1.63-.65,2.1-.98,1.31-.98,2.36-1.87,3.15-2.66.27-.23,1.17-1.21,2.68-2.91,0-.02.02-.03.03-.05.54-.73,1.09-1.46,1.68-2.15.29-.48.6-.96.95-1.43Zm-6.88-17.63c1.73-3.6,3.46-6.73,5.18-9.39l1.75-2.59c-.37,1.08-.91,2.29-1.61,3.64v.07c-1.4,2.85-3.06,5.79-4.98,8.83-.09.09-.2.23-.32.42-.12.19-.18.3-.18.35-.23.37-.37.56-.42.56-.56.7-.87,1.08-.91,1.12l1.47-3.01Z"/>
    <path class="cls-7" d="m185.11,14c-1.03-.65-2.13-1.12-3.29-1.4-2.8-.79-6.12-.98-9.95-.56-3.36.33-6.66.96-9.88,1.89-.05,0-.16.05-.35.14-.28.09-.47.14-.56.14-.14,0-.19-.09-.14-.28.09-.37.19-.89.28-1.54.09-.7-.14-1.12-.7-1.26-.61-.19-1.03-.02-1.26.49-.05.14-.14.34-.28.6-.14.26-.26.43-.35.53-.47,1.12-.82,1.99-1.05,2.59-.19.09-.43.2-.74.32-.3.12-.48.18-.53.18-6.96,2.8-13.41,6.24-19.34,10.3-.88.61-2.09,1.54-3.62,2.77-.08.11-.15.21-.23.32-.46.57-1.02,1.03-1.54,1.54-.07.07-.15.12-.23.18-.04.06-.08.13-.13.19-.04.06-.07.11-.11.17-.06.09-.13.16-.19.24-.14.22-.29.45-.42.67-.46.75-.9,1.51-1.4,2.24-.14.2-.29.38-.44.55-.02.28.01.55.16.8.16.29.42.46.73.59.3-.41.62-.8.95-1.19.27-.46.57-.91.91-1.35.04-.05.08-.1.11-.14,1.65-3.1,4.86-5.26,8.06-6.73,4.75-3.17,10.07-6.04,15.97-8.62.42-.14.68-.14.77,0,0,.23-.02.42-.07.56-1.54,3.92-2.5,6.24-2.87,6.94l-2.73,5.68c-.37.79-.91,1.95-1.61,3.47-.7,1.52-1.22,2.65-1.54,3.4-.05.14-.13.36-.25.67-.12.3-.2.53-.25.67-.19.65.05,1.19.7,1.61.05.05.12.11.21.18.09.07.16.13.21.18-.05.14-.1.35-.18.63-.07.28-.1.47-.1.56-.19.47-.44,1.2-.77,2.21-.33,1.01-.56,1.76-.7,2.28-.09.23-.21.57-.35,1.02-.14.44-.28.84-.42,1.19-.14.35-.3.67-.49.95-.23.37-.41.96-.53,1.75-.12.79-.22,1.33-.32,1.61-1.5,4.48-2.55,7.87-3.15,10.16-.47,1.36-1.24,2.27-2.31,2.73-.28.19-.65.43-1.12.74-.47.3-.89.6-1.26.88-1.4,1.17-2.64,2.29-3.71,3.36-.61.56-1.19,1.31-1.75,2.24-.75,1.35-.9,2.58-.46,3.68.44,1.1,1.41,1.88,2.91,2.35.89.19,1.49.3,1.82.35h1.12c-.09.33-.21.78-.35,1.37-.14.58-.27,1.11-.39,1.58-.12.47-.22.89-.32,1.26-.09.56-.14.98-.14,1.26,0,.7.33,1.05.98,1.05.28,0,.51-.09.7-.28.19-.19.28-.44.28-.77,0-.37.02-.76.07-1.16.05-.4.1-.75.18-1.05.07-.3.18-.69.32-1.16.14-.47.23-.82.28-1.05.09-.47.19-.82.28-1.05,5.37-.89,10.49-2.87,15.34-5.96,2.06-1.21,3.97-2.76,5.75-4.62,1.35-1.4,2.36-2.94,3.01-4.62.98-2.8.68-5.42-.91-7.85-.79-1.21-1.87-2.27-3.22-3.15-2.15-1.49-4.81-2.52-7.99-3.08-.14,0-.37-.06-.7-.18-.33-.12-.63-.2-.91-.25.28-.14.62-.32,1.02-.53.4-.21.69-.36.88-.46,3.83-1.77,6.7-3.13,8.62-4.06,6.73-3.27,12.33-6.59,16.82-9.95,2.8-2.01,5.09-3.92,6.87-5.75,1.45-1.45,2.62-2.9,3.5-4.34.84-1.21,1.45-2.57,1.82-4.06.7-3.18-.3-5.68-3.01-7.5Zm-48.28,64.6s-.68.07-2.03.07c-1.54-.23-2.48-.79-2.8-1.68-.19-.51-.12-1.1.21-1.75.51-1.12,1.56-2.43,3.15-3.92.23-.19,1.54-1.17,3.92-2.94l.42-.21c-.33,1.08-.82,2.8-1.47,5.18-.65,2.38-1.12,4.13-1.4,5.26Zm20.18-23.26c1.17.75,2.13,1.66,2.87,2.73,1.49,2.06,1.75,4.25.77,6.59-.42,1.22-1.1,2.34-2.03,3.36-1.64,1.64-2.78,2.69-3.43,3.15-4.3,3.41-9.11,5.75-14.43,7.01-.84.19-1.5.28-1.96.28.09-.65.19-1.1.28-1.33.37-1.45,1.19-4.44,2.45-8.97.23-.84.68-1.42,1.33-1.75,4.44-2.15,7.54-3.43,9.32-3.85l.21-.07c.14-.05.23-.09.28-.14.23-.33.35-.58.35-.77-.05-.23-.21-.44-.49-.63-.28-.14-.59-.16-.91-.07-.7.19-1.5.44-2.38.77-.61.23-1.51.62-2.7,1.16-1.19.54-2.09.95-2.7,1.23-.19.09-.51.23-.98.42.09-.84.61-2.78,1.54-5.82.93-3.04,1.63-5.09,2.1-6.17h1.54c3.46.28,6.45,1.24,8.97,2.87Zm29.29-34.47c-.23,1.12-.7,2.29-1.4,3.5-1.12,1.68-2.24,3.08-3.36,4.2-1.68,1.68-3.88,3.55-6.59,5.61-4.34,3.27-9.67,6.47-15.98,9.6-1.12.51-2.8,1.3-5.05,2.35-2.24,1.05-3.92,1.86-5.04,2.42-.28.14-.72.3-1.33.49.09-.23.19-.55.28-.95.09-.4.19-.69.28-.88.14-.42.71-2.08,1.72-4.97,1-2.9,1.65-4.74,1.93-5.54.28-.79.85-2.37,1.72-4.73.86-2.36,1.56-4.18,2.1-5.47.54-1.28,1.2-2.85,2-4.69.79-1.84,1.59-3.56,2.38-5.15,1.77-.65,4.11-1.28,7.01-1.89,2.66-.56,5.04-.86,7.15-.91,2.52-.14,4.83.05,6.94.56,1.03.19,2.08.63,3.15,1.33,1.82,1.26,2.52,2.97,2.1,5.11Z"/>
    <path class="cls-7" d="m186.37,47.14c.19.23.23.51.14.84-.05.19-.21.42-.49.7-2.52,2.15-4.02,3.41-4.48,3.78-.66.56-1.57,1.17-2.73,1.82-.61.33-1.22.51-1.82.56-1.73.19-2.87-.54-3.43-2.17,0-.09-.02-.25-.07-.46-.05-.21-.08-.4-.1-.56-.02-.16-.03-.32-.03-.46.14-2.57.84-4.74,2.1-6.52.19-.33.49-.61.91-.84.56-.42,1.07-.3,1.54.35.14.23.19.49.14.77,0,.23-.14.47-.42.7-1.5,1.22-2.24,3.18-2.24,5.89,0,1.4.68,1.85,2.03,1.33.98-.37,1.82-.82,2.52-1.33.47-.37,1.13-.93,2-1.68.86-.75,1.44-1.24,1.72-1.47.33-.23.77-.63,1.33-1.19.19-.19.4-.28.63-.28.37,0,.63.07.77.21Zm-8.55-4.48c-.56-.23-.77-.63-.63-1.19.33-1.03.86-2.03,1.61-3.01.33-.42.72-.47,1.19-.14.09.05.28.28.56.7,0,.14-.05.35-.14.63-.14.28-.36.7-.67,1.26-.3.56-.53.98-.67,1.26-.28.51-.7.68-1.26.49Z"/>
    <path class="cls-7" d="m208.23,26.12c.61.09.86.44.77,1.05-.09.51-.37.77-.84.77h-1.12c-2.48,0-4.32.02-5.54.07-.23,0-.59.04-1.05.1-.47.07-.72.11-.77.11-.09.19-.23.42-.42.7-.19.28-.33.51-.42.7-3.22,5.56-6.75,10.74-10.58,15.56-.47.65-.79,1.24-.98,1.75-1.08,3.27-1.71,6.12-1.89,8.55,0,1.17.05,2.06.14,2.66,0,.23.09.59.28,1.05.37.89,1,1.19,1.89.91.7-.23,1.35-.54,1.96-.91,1.21-.79,2.24-1.59,3.08-2.38,2.76-2.38,5.18-5.02,7.29-7.92.47-.65.84-1.14,1.12-1.47.19-.28.44-.37.77-.28.33,0,.54.19.63.56.14.33.09.61-.14.84-.28.37-.69.89-1.23,1.54-.54.65-.95,1.17-1.23,1.54-2.52,3.18-5.02,5.75-7.5,7.71-1.08.84-2.13,1.52-3.15,2.03-1.73.65-3.05.67-3.96.03s-1.46-1.67-1.65-3.12c-.23-2.01-.02-4.37.63-7.08.05-.28.1-.56.18-.84.07-.28.15-.6.25-.95.09-.35.16-.64.21-.88-.05-.09-.14-.21-.28-.35-.14-.14-.23-.26-.28-.35-.37-.37-.4-.82-.07-1.33.28-.37.7-.89,1.26-1.54.47-.47.86-1.12,1.19-1.96,1.68-4.48,3.62-8.85,5.82-13.1.05-.05.07-.1.07-.18s.02-.13.07-.18l.49-.98h-1.47c-.52,0-1.3.01-2.35.04-1.05.02-1.83.03-2.35.03-.56,0-.98-.02-1.26-.07-.56-.09-.84-.42-.84-.98,0-.61.28-.96.84-1.05h1.26c.79-.05,2-.08,3.61-.11,1.61-.02,2.84-.03,3.68-.03.37-.56.68-.98.91-1.26,1.68-2.62,2.99-4.55,3.92-5.82.23-.33.86-.96,1.89-1.89.56-.47,1.12-.51,1.68-.14.61.28.86.77.77,1.47-.05.56-.21,1.26-.49,2.1-.28.84-.79,2.06-1.54,3.64-.05.14-.13.36-.25.67-.12.3-.22.57-.32.81h5.82c.33,0,.82.05,1.47.14Zm-17.94,12.82c2.1-2.43,4.32-5.98,6.66-10.65-.51,0-.86.02-1.05.07-.28.09-.44.23-.49.42-1.12,1.96-2.1,3.81-2.94,5.54v.07l-2.17,4.55Zm10.37-18.08c.14-.75-.7.33-2.52,3.22l-1.4,2.24h1.54l.98-1.96v-.07c.19-.33.39-.74.6-1.23s.39-.85.53-1.09c.09-.28.19-.65.28-1.12Z"/>
    <path class="cls-7" d="m216.71,47.56c.14.37.05.7-.28.98-.05,0-.07.01-.07.03,0,.02-.02.04-.07.04l-.35.14s-.09.02-.14.07c-.42.19-1.66.79-3.71,1.82-.37.19-.96.49-1.75.91-.79.42-1.41.75-1.86.98-.44.23-1.02.48-1.72.74-.7.26-1.36.46-1.96.6-1.78.28-3.06.19-3.85-.28-.94-.56-1.35-1.42-1.26-2.59,0-.37.04-.75.1-1.12.07-.37.16-.79.28-1.26.12-.47.2-.84.25-1.12,0-.05.02-.09.07-.14.19-.19.57-.63,1.16-1.33s1.02-1.2,1.3-1.51c.28-.3.69-.68,1.23-1.12.54-.44,1.06-.81,1.58-1.09.19-.09.51-.23.98-.42.14-.09.35-.19.63-.28.93-.19,1.59,0,1.96.56.42.61.44,1.22.07,1.82-.23.47-.61,1-1.12,1.61-1.4,1.45-3.13,2.48-5.19,3.08-.61.09-1,.3-1.19.63-.38.98-.44,1.73-.21,2.24.28.61.98.87,2.1.77.14,0,.23-.02.28-.07,1.73-.23,4.13-1.21,7.22-2.94,2.01-1.07,3.22-1.7,3.64-1.89.28-.14.61-.26.98-.35.47-.09.77.07.91.49Zm-9.11-4.41c-.42-.05-1.03.26-1.82.91-.79.65-1.47,1.31-2.03,1.96l-.84,1.05c3.5-1.91,5.14-3.18,4.9-3.78l-.21-.14Z"/>
    <path class="cls-7" d="m227.71,47.28c.23.37.12.72-.35,1.05-.47.23-.73.37-.77.42-3.08,1.73-5.72,3.69-7.92,5.89-.05.05-.1.09-.18.14-.07.05-.14.12-.21.21-.07.09-.13.16-.18.21.14.98.3,2.34.49,4.06.33,2.29.28,4.67-.14,7.15-.28,1.68-.87,3.25-1.75,4.69-.79,1.08-1.68,1.87-2.66,2.38-1.26.61-2.42.63-3.47.07-1.05-.56-1.67-1.54-1.86-2.94-.14-1.07-.07-2.15.21-3.22.47-1.78,1.08-3.32,1.82-4.62,1.12-2.24,2.62-4.41,4.48-6.52.61-.7.79-1.45.56-2.24-.23-.7-.49-1.75-.77-3.15-.14-1.03-.19-1.91-.14-2.66.09-1.35.7-2.41,1.82-3.15.47-.33.93-.35,1.4-.07.56.23.79.68.7,1.33.09.47-.09.79-.56.98-.47.19-.84.33-1.12.42-.33,1.31-.12,3.2.63,5.68.14-.09.34-.25.6-.46.26-.21.46-.39.6-.53,1.59-1.4,3.83-3.01,6.73-4.83.37-.28.68-.47.91-.56.56-.23.93-.14,1.12.28Zm-11.07,19.27c.42-2.2.49-4.39.21-6.59-.05-.33-.12-.83-.21-1.51-.09-.68-.16-1.11-.21-1.3-.09.05-.23.16-.42.35-2.57,3.04-4.34,6.07-5.32,9.11-.42,1.22-.58,2.27-.49,3.15,0,.42.07.84.21,1.26.42,1.26,1.28,1.66,2.59,1.19.79-.28,1.52-.89,2.17-1.82.75-1.12,1.24-2.41,1.47-3.85Z"/>
  </g>
  <path class="cls-7" d="m130.58,42.57s-.15,0-.16,0l-4.51,15.49c-.12.42.02.84.33.93s.65-.19.77-.61l4.53-15.53c-.36-.04-.6-.17-.95-.27Z"/>
  <circle class="cls-12" cx="132.84" cy="36.49" r="7.28"/>
  <path class="cls-7" d="m139.63,39.21c-.17.49-.63,1.61-.98,1.98s-.99.54-1.39.21c-.39-.32-.49-1.03-1-1.08-.41-.04-.75.45-1.16.38-.57-.09-.48-.96-.81-1.43-.37-.52-1.17-.43-1.77-.2s-1.26.55-1.84.29c-.65-.28-.89-1.16-1.54-1.45-.99-.43-2.12.75-3.13.37-.77-.28-.97-1.31-.76-2.1s.32-.97.6-1.74c1.5-4.11,4.67-6.42,9.03-4.95,4.92,1.66,5.94,6.22,4.75,9.71Z"/>
  <path class="cls-8" d="m128.9,48.34c-.68-.75-2.65-2.09-3.47-.82-.32.49-.37,1.36-.05,1.86s.98.66,1.54.6c.81-.09,1.51-.6,2.23-.93.82-.38,1.8-.73,2.72-.62.6.07.56.53.12.81-.38.23-.9.27-1.32.19-.72-.14-1.36-.76-2.13-.43-.67.28-1.24,1.07-1.67,1.63-.54.71-.96,1.5-1.28,2.33l.7.1c.28-1.03.84-2.29,1.8-2.86.51-.3,1.12-.25,1.47.25.28.39.43.87.7,1.28,1.01,1.54,2.8,2.65,4.68,2.39.41-.06.54-.63.06-.56-1.14.16-2.21-.27-3.07-1-.42-.36-.79-.79-1.08-1.27-.28-.45-.43-1-.8-1.37-.71-.72-1.86-.51-2.6.04-.94.7-1.55,1.9-1.85,3.01-.11.42.57.42.7.1.26-.69.6-1.34,1.02-1.95.19-.27.39-.53.61-.78s.47-.61.77-.77c.39-.21.78.1,1.15.25.31.12.63.19.96.21.59.03,1.27-.1,1.74-.46.35-.27.69-.75.48-1.2-.26-.56-1.08-.53-1.59-.5-.71.04-1.4.23-2.07.49-.73.29-1.41.8-2.17,1.01-.36.1-.79.09-1.06-.21s-.24-.83-.14-1.2c.09-.34.31-.4.64-.31.19.05.38.13.56.21.4.19.76.48,1.06.81.23.26.92-.04.66-.33h0Z"/>
  <path d="m132.25,33.16v.17s.03.01.03,0v-.17s-.03-.01-.03,0h0Z"/>
  <path class="cls-6" d="m130.19,31.68c.17,0,.22-.22.02-.22-.17,0-.22.22-.02.22h0Z"/>
  <path class="cls-6" d="m131.44,34.3v.2s0,.02,0,.03c0,.01.01.02.02.02.03.01.07.02.1.01.04,0,.08-.02.11-.04l.03-.02s.02-.03.03-.04v-.2s0-.02,0-.03c0-.01-.01-.02-.02-.02-.03-.01-.07-.02-.1-.01-.04,0-.08.02-.11.04l-.03.02s-.02.03-.03.04h0Z"/>
  <path class="cls-6" d="m128.69,34.24c.16,0,.23-.2.03-.2-.16,0-.23.2-.03.2h0Z"/>
  <path class="cls-6" d="m134.71,34.82c-.01-.19.02-.38.07-.55,0-.02-.01-.04-.03-.05-.03-.01-.07-.01-.09,0-.05,0-.15.03-.17.09-.06.19-.09.39-.08.59,0,.02.04.03.06.04.03,0,.08,0,.11,0,.05-.01.13-.04.13-.11h0Z"/>
  <path class="cls-6" d="m129.71,33.13c0,.17.03.35.11.5,0,.02.04.02.05.02.03,0,.07,0,.11-.02s.07-.02.1-.04c0,0,.04-.02.04-.04-.08-.16-.11-.33-.11-.5,0-.02-.05-.02-.05-.02-.03,0-.07,0-.11.02s-.07.02-.1.04c-.01,0-.03.02-.04.04h0Z"/>
  <path class="cls-6" d="m133.51,32.39c.17,0,.22-.22.02-.22-.17,0-.22.22-.02.22h0Z"/>
  <path class="cls-6" d="m136.64,35.6v-.24s-.04-.03-.05-.03c-.03,0-.07,0-.11.01s-.07.02-.1.04l-.02.02s-.01.02-.01.03v.24s.04.03.05.03c.03,0,.07,0,.11-.01s.07-.02.1-.04l.02-.02s.01-.02.01-.03h0Z"/>
  <path class="cls-6" d="m136.01,32.87l.42.71s.12.01.16,0c.02,0,.15-.05.13-.08l-.42-.71s-.12-.01-.16,0c-.02,0-.15.05-.13.08h0Z"/>
  <path class="cls-6" d="m135.05,31.42c.06,0,.33-.11.19-.11-.06,0-.33.11-.19.11h0Z"/>
  <path class="cls-6" d="m135.09,31.4c.1,0,.31-.15.12-.15-.1,0-.31.15-.12.15h0Z"/>
  <path class="cls-6" d="m132.98,33.6c.09,0,.31-.13.12-.13-.09,0-.31.13-.12.13h0Z"/>
  <path class="cls-6" d="m137.87,34.63c.11,0,.31-.17.11-.17-.11,0-.31.17-.11.17h0Z"/>
  <path class="cls-6" d="m137.88,36.12c.17,0,.22-.23.02-.23-.17,0-.22.23-.02.23h0Z"/>
  <path class="cls-6" d="m131.98,30.9v.47s0,.06.04.08.07.03.1.02c.04,0,.08-.02.11-.04.02-.02.05-.05.05-.08v-.47s0-.06-.04-.08-.07-.03-.1-.02c-.04,0-.08.02-.11.04-.02.02-.05.05-.05.08h0Z"/>
</svg>