<?xml version="1.0" encoding="utf-8"?>
<!-- Generator: Adobe Illustrator 27.2.0, SVG Export Plug-In . SVG Version: 6.00 Build 0)  -->
<svg version="1.1" id="Layer_1" xmlns="http://www.w3.org/2000/svg" xmlns:xlink="http://www.w3.org/1999/xlink" x="0px" y="0px"
	 viewBox="0 0 300 150" style="enable-background:new 0 0 300 150;" xml:space="preserve">
<style type="text/css">
	.st0{fill:#FFFFFF;}
	.st1{fill:#A87284;stroke:#FFFFFF;stroke-width:0.75;stroke-miterlimit:10;}
	.st2{fill:#A87284;}
</style>
<g>
	<g>
		<path class="st0" d="M51.4,106.23h2.14c1.18,0,1.8,0.63,1.8,1.51c0,0.73-0.44,1.2-0.95,1.34c0.44,0.13,1.16,0.55,1.16,1.51
			c0,1.23-0.93,1.78-1.99,1.78h-2.18v-6.15H51.4z M53.38,108.87c1.06,0,1.46-0.4,1.46-1.1c0-0.6-0.43-1.1-1.28-1.1h-1.7v2.2
			L53.38,108.87L53.38,108.87z M51.86,111.92h1.73c0.8,0,1.48-0.4,1.48-1.3c0-0.78-0.5-1.31-1.74-1.31h-1.48v2.62H51.86z"/>
		<path class="st0" d="M57.92,110.25l-0.78,2.13h-0.49l2.25-6.13h0.56l2.35,6.13H61.3l-0.8-2.13H57.92z M60.35,109.81
			c-0.69-1.83-1.04-2.7-1.15-3.12h-0.01c-0.15,0.46-0.54,1.55-1.1,3.12H60.35z"/>
		<path class="st0" d="M63.31,106.23h0.48v3.19c0.49-0.48,2.24-2.13,3.34-3.19h0.63L65,108.84l2.92,3.53h-0.59l-2.67-3.22
			l-0.88,0.78v2.45h-0.48V106.23z"/>
		<path class="st0" d="M72.7,109.34h-3.13v2.58H73l-0.08,0.44h-3.83v-6.13h3.76v0.44h-3.28v2.24h3.13V109.34z"/>
		<path class="st0" d="M75.09,109.49v2.87H74.6v-6.13h2.2c1.21,0,1.85,0.65,1.85,1.62c0,0.78-0.46,1.29-1.15,1.44
			c0.63,0.15,1.05,0.56,1.05,1.6v0.24c0,0.43-0.04,1.01,0.08,1.25h-0.49c-0.11-0.26-0.09-0.75-0.09-1.28v-0.15
			c0-1.01-0.3-1.43-1.48-1.43h-1.49V109.49z M75.09,109.06h1.48c1.08,0,1.58-0.4,1.58-1.21c0-0.75-0.49-1.19-1.45-1.19h-1.62v2.4
			H75.09z"/>
		<path class="st0" d="M81.86,112.36v-2.3c0-0.05-0.01-0.11-0.04-0.14l-2.19-3.69h0.55c0.61,1.04,1.68,2.85,1.95,3.32
			c0.26-0.45,1.34-2.25,2-3.32h0.53l-2.29,3.73c-0.01,0.04-0.03,0.08-0.03,0.14v2.28h-0.49V112.36z"/>
		<path class="st0" d="M93.57,108.42l-1.53,2.37c-0.75,1.15-1.28,1.67-2.27,1.67c-1,0-1.59-0.8-1.59-1.57
			c0-0.74,0.34-1.31,1.64-2.02c0.89-0.58,1.23-0.83,1.23-1.39c0-0.48-0.31-0.95-0.89-0.95c-0.55,0-0.94,0.34-0.94,0.98
			c0,0.4,0.28,0.76,0.8,1.26l3.63,3.58h-0.66l-3.32-3.27c-0.58-0.54-0.9-0.95-0.9-1.57c0-0.69,0.46-1.39,1.4-1.39
			c0.79,0,1.33,0.6,1.33,1.35c0,0.6-0.33,0.98-1.4,1.65c-1.24,0.7-1.45,1.13-1.45,1.72c0,0.63,0.54,1.16,1.11,1.16
			c0.71,0,1.19-0.25,1.98-1.51l1.3-2.09h0.53V108.42z"/>
		<path class="st0" d="M102.59,110.72c-0.29,0.98-1.01,1.72-2.3,1.72c-1.77,0-2.69-1.4-2.69-3.13c0-1.65,0.91-3.17,2.7-3.17
			c1.33,0,2.1,0.74,2.3,1.77h-0.48c-0.28-0.8-0.8-1.33-1.85-1.33c-1.53,0-2.17,1.39-2.17,2.72c0,1.31,0.63,2.7,2.2,2.7
			c1,0,1.51-0.51,1.82-1.28H102.59z"/>
		<path class="st0" d="M104.86,110.25l-0.78,2.13h-0.49l2.25-6.13h0.56l2.35,6.13h-0.51l-0.8-2.13H104.86z M107.29,109.81
			c-0.69-1.83-1.04-2.7-1.15-3.12h-0.01c-0.15,0.46-0.54,1.55-1.1,3.12H107.29z"/>
		<path class="st0" d="M110.24,106.23h0.48v3.19c0.49-0.48,2.24-2.13,3.34-3.19h0.63l-2.75,2.62l2.92,3.53h-0.59l-2.67-3.22
			l-0.88,0.78v2.45h-0.48C110.24,112.39,110.24,106.23,110.24,106.23z"/>
		<path class="st0" d="M119.62,109.34h-3.13v2.58h3.43l-0.08,0.44h-3.83v-6.13h3.76v0.44h-3.29v2.24h3.13v0.44H119.62z"/>
		<path class="st0" d="M124.2,106.23h2.19c1.13,0,1.89,0.63,1.89,1.72c0,1.1-0.76,1.75-1.95,1.75h-1.65v2.68h-0.49v-6.15H124.2z
			 M124.69,109.24h1.69c0.99,0,1.4-0.53,1.4-1.3c0-0.83-0.54-1.29-1.36-1.29h-1.73V109.24z"/>
		<path class="st0" d="M135.13,109.24c0,1.68-0.89,3.21-2.79,3.21c-1.73,0-2.74-1.39-2.74-3.16c0-1.74,0.98-3.16,2.79-3.16
			C134.08,106.14,135.13,107.45,135.13,109.24z M130.11,109.27c0,1.41,0.78,2.74,2.25,2.74c1.59,0,2.25-1.3,2.25-2.75
			c0-1.43-0.75-2.68-2.24-2.68C130.8,106.58,130.11,107.88,130.11,109.27z"/>
		<path class="st0" d="M136.88,106.23h2.19c1.13,0,1.89,0.63,1.89,1.72c0,1.1-0.76,1.75-1.95,1.75h-1.65v2.68h-0.49v-6.15H136.88z
			 M137.36,109.24h1.69c0.99,0,1.4-0.53,1.4-1.3c0-0.83-0.54-1.29-1.36-1.29h-1.73V109.24z"/>
		<path class="st0" d="M142.68,110.71c0.19,0.81,0.73,1.3,1.74,1.3c1.13,0,1.55-0.56,1.55-1.23c0-0.69-0.31-1.13-1.65-1.45
			c-1.3-0.33-1.85-0.75-1.85-1.63c0-0.8,0.59-1.57,1.9-1.57c1.35,0,1.92,0.83,2,1.57h-0.49c-0.14-0.65-0.58-1.13-1.54-1.13
			c-0.89,0-1.36,0.41-1.36,1.1c0,0.68,0.4,0.94,1.54,1.21c1.73,0.43,1.98,1.13,1.98,1.85c0,0.9-0.66,1.68-2.08,1.68
			c-1.54,0-2.09-0.89-2.22-1.72H142.68z"/>
	</g>
</g>
<g>
	<path class="st0" d="M77.84,55.14c0.7,0.11,1.05,0.44,1.05,0.96c0.11,0.53-0.2,0.85-0.96,0.96c-2.28,0.11-4.01,0.26-5.17,0.44
		c-4.68,0.59-8.91,1.34-12.72,2.28c-0.06,0.24-0.2,0.58-0.44,1.01c-0.24,0.44-0.38,0.78-0.44,1.01c-4.16,9.3-9.21,17.43-15.17,24.39
		c-3.57,4.21-7.69,7.93-12.37,11.14c-3.86,2.69-7.72,4.47-11.58,5.35c-1.93,0.46-3.77,0.59-5.52,0.35
		c-3.46-0.59-5.26-2.58-5.43-5.96c-0.06-1.7,0.24-3.39,0.88-5.08c0.99-2.58,2.32-4.91,3.94-7.02c2.63-3.57,6.02-7.05,10.18-10.44
		c6.72-5.43,14.59-9.77,23.6-12.98c2.1-0.76,5.32-1.78,9.65-3.07c0.76-0.24,1.29-0.7,1.58-1.4c2.57-7.14,3.98-13.62,4.21-19.47
		c0.11-2.58-0.15-5.03-0.79-7.37c-0.18-0.81-0.44-1.6-0.79-2.37c-1.46-3.46-4.21-5.06-8.25-4.82c-2.05,0.06-4.44,0.68-7.2,1.84
		c-4.21,1.82-7.99,4.09-11.32,6.85c-7.9,6.02-14.86,13.42-20.88,22.2c-0.35,0.53-0.8,1.29-1.36,2.28c-0.55,0.99-0.95,1.67-1.19,2.02
		c-0.06,0.11-0.14,0.31-0.23,0.58c-0.09,0.26-0.16,0.45-0.23,0.58c0.29,0.06,0.68,0.15,1.14,0.26s0.76,0.41,0.88,0.88
		c0.11,0.46,0,0.85-0.35,1.14c-0.99,0.99-2.08,1.58-3.24,1.75c-0.59,0.11-1.05,0-1.4-0.35c-0.41-0.41-0.59-0.85-0.53-1.31
		c0-0.7,0.11-1.38,0.35-2.02c0.53-1.23,1.25-2.69,2.19-4.38c1.53-2.75,3.54-5.65,6.05-8.69c5.43-6.72,11.19-12.4,17.28-17.01
		c3.46-2.63,7.05-4.8,10.79-6.49c2.52-1.29,4.91-2.08,7.2-2.37c1.69-0.24,3.13-0.26,4.29-0.09c3.16,0.35,5.58,1.9,7.29,4.64
		c0.99,1.7,1.75,3.89,2.28,6.59c0.53,3.28,0.44,7.07-0.26,11.41c-0.53,3.46-1.55,7.42-3.07,11.93c-0.11,0.24-0.25,0.59-0.4,1.05
		c-0.15,0.46-0.28,0.85-0.4,1.14c0.76-0.11,1.84-0.29,3.24-0.53c1.4-0.24,2.43-0.41,3.07-0.53c2.1-0.35,5.03-0.73,8.78-1.14
		C76.44,55.17,77.03,55.14,77.84,55.14z M56.88,61.9c0.06-0.11,0.2-0.53,0.44-1.23c-0.18,0.06-0.43,0.09-0.75,0.09
		c-0.33,0-0.54,0.03-0.66,0.09c-4.56,1.29-9.06,2.93-13.51,4.91c-8.54,3.81-15.96,8.8-22.29,15c-2.1,2.1-4.07,4.47-5.87,7.11
		c-1.11,1.75-1.95,3.51-2.54,5.26c-0.53,1.51-0.73,2.84-0.61,3.94c0.18,2.04,1.23,3.33,3.16,3.86l1.84,0.26
		c1.4,0.06,3.02-0.2,4.82-0.79c2.74-0.7,5.85-2.17,9.3-4.38c4.51-2.93,8.83-6.85,12.98-11.76C48.46,78.07,53.01,70.62,56.88,61.9z"
		/>
	<path class="st0" d="M89.77,55.93c0.24,0.06,0.41,0.2,0.53,0.44c0.11,0.24,0.15,0.44,0.09,0.61c0,0.64-0.29,0.9-0.88,0.79
		c-1.29,0-2.25-0.03-2.89-0.09H83.9c-0.18,1.93-0.89,4.04-2.15,6.36c-1.26,2.32-2.73,3.47-4.43,3.47c-0.94,0-1.64-0.5-2.1-1.49
		c-0.46-0.94-0.61-1.87-0.44-2.8c0.46-3.51,1.75-6.59,3.86-9.21c0.76-0.99,1.73-1.34,2.89-1.05h0.35c1.05,0.41,1.69,1.31,1.93,2.72
		c1.23,0.18,2.63,0.2,4.21,0.09C88.48,55.76,89.07,55.82,89.77,55.93z M78.46,64.45c0.88-0.59,1.64-1.74,2.28-3.47
		c0.64-1.73,0.96-3.17,0.96-4.34c0-0.11-0.06-0.29-0.18-0.53C81.41,56,81.24,55.93,81,55.93c-1.16,0-2.34,2.05-3.51,6.13
		c-0.18,0.7-0.24,1.31-0.18,1.84c0,0.29,0.15,0.5,0.44,0.61C78.06,64.65,78.28,64.62,78.46,64.45z"/>
	<path class="st0" d="M116,56.28c0.06,0.35-0.03,0.61-0.26,0.79c-0.06,0-0.15,0.05-0.26,0.14c-0.11,0.09-0.24,0.16-0.35,0.23
		c-3.51,2.17-7.02,4.68-10.53,7.55c-0.83,0.7-1.38,1.58-1.67,2.63c-2.4,8.08-5.7,15.35-9.92,21.85c-0.94,1.34-1.84,2.43-2.72,3.24
		c-1.05,1.29-2.23,1.93-3.51,1.93c-1.46,0-2.25-0.88-2.37-2.63c0-3.92,1.58-8.25,4.73-12.98c3.16-4.73,6.59-8.78,10.27-12.11
		c1.34-1.16,2.08-2.67,2.19-4.47c0.29-2.04,0.26-3.28-0.09-3.68c-0.24-0.29-1.09,0.11-2.54,1.23c-0.41,0.29-0.96,0.76-1.67,1.4
		c-0.7,0.64-1.16,1.05-1.4,1.23c-0.41,0.35-1.08,0.81-2.02,1.4c-0.59,0.29-1.11,0.44-1.58,0.44c-1.16,0-2.02-0.61-2.54-1.84
		c-0.88-1.99-0.88-4.18,0-6.59c0-0.06,0.03-0.13,0.09-0.23c0.06-0.09,0.11-0.16,0.18-0.23c0.06-0.06,0.09-0.11,0.09-0.18
		c0.46-0.46,1.03-0.61,1.67-0.44c0.76,0.35,0.99,0.9,0.7,1.67c-0.11,0.41-0.29,0.96-0.53,1.67c-0.41,1.82-0.38,3.02,0.09,3.59
		c0.11,0.11,0.24,0.15,0.35,0.09c0.11-0.06,0.35-0.23,0.7-0.49c0.35-0.26,0.59-0.43,0.7-0.49c0.24-0.18,0.68-0.55,1.31-1.14
		s1.16-1.03,1.58-1.31c2.04-1.58,3.66-2.37,4.82-2.37c1.4,0,2.28,0.81,2.63,2.45c0.18,1.53,0.2,2.8,0.09,3.86
		c0.18-0.06,0.4-0.2,0.66-0.44c0.26-0.24,0.45-0.38,0.58-0.44c0.11-0.11,0.68-0.5,1.67-1.14l3.24-2.37
		c0.24-0.11,0.55-0.33,0.96-0.61c0.41-0.29,0.64-0.46,0.7-0.53h0.09c1.64-0.81,2.67-1.23,3.07-1.23
		C115.63,55.76,115.89,55.93,116,56.28z M99.08,71.81l0.88-2.8l-2.37,2.72c-2.45,2.69-4.86,5.83-7.2,9.43
		c-2.34,3.59-3.59,6.65-3.77,9.16c-0.06,0.18-0.09,0.54-0.09,1.1c0,0.55,0.09,0.86,0.26,0.93c0.59,0.06,1.29-0.38,2.1-1.31
		C92.58,86.98,95.97,80.58,99.08,71.81z"/>
	<path class="st0" d="M132.58,55.32c0.46,0.11,0.88,0.35,1.23,0.7c0.24,0.24,0.24,0.55,0,0.96c-0.11,0.41-0.41,0.55-0.88,0.44
		c-1.46-0.59-3.57-0.41-6.31,0.53c-3.81,1.29-7.55,3.31-11.23,6.05c-0.11,0.11-0.29,0.24-0.53,0.35c0.06,0,0.18,0.03,0.35,0.09
		c0.18,0.06,0.33,0.1,0.44,0.14c0.11,0.03,0.2,0.04,0.26,0.04c2.52,0.41,3.74,2.05,3.68,4.91c0,1.4-0.26,2.8-0.79,4.21
		c-1.75,4.68-4.36,8.83-7.81,12.46c-0.81,0.88-1.75,1.64-2.8,2.28c-0.99,0.46-1.85,0.51-2.59,0.14c-0.73-0.38-1.21-1.1-1.45-2.15
		c-0.24-1.23-0.18-2.8,0.18-4.73c0.64-3.68,1.93-7.9,3.86-12.63c3.28-8.3,7.42-15.46,12.46-21.5c2.22-2.63,4.33-4.68,6.31-6.13
		c0.88-0.64,1.9-1.25,3.07-1.84c1.34-0.59,2.43-0.53,3.24,0.18c0.81,0.64,0.99,1.67,0.53,3.07c-0.24,0.7-0.46,1.25-0.7,1.67
		c-0.35,0.53-0.79,0.7-1.31,0.53c-0.76-0.24-1.09-0.7-0.96-1.4c0-0.11,0.03-0.31,0.09-0.58c0.06-0.26,0.11-0.49,0.18-0.66
		c-0.06-0.11-0.2-0.16-0.44-0.13c-0.24,0.03-0.41,0.1-0.53,0.23c-1.93,1.35-3.04,2.14-3.33,2.37c-4.56,4.09-8.78,9.77-12.63,17.01
		c0.06,0.06,0.2,0.09,0.44,0.09c0.24,0,0.41-0.03,0.53-0.09c3.39-1.99,5.93-3.42,7.64-4.29c2.17-1.16,4.44-1.93,6.85-2.28
		C130.54,55.26,131.53,55.26,132.58,55.32z M115.39,66.55c-1.18-0.18-2.34-0.18-3.51,0c-1.53,3.16-2.75,6.41-3.68,9.74
		c-0.24,0.76-0.79,2.93-1.67,6.49c-0.35,2.28-0.29,3.51,0.18,3.68c0.46,0.18,1.29-0.33,2.45-1.49c3.51-3.63,6.11-7.78,7.81-12.46
		c0.24-0.81,0.38-1.46,0.44-1.93c0.11-0.35,0.18-0.88,0.18-1.58C117.52,67.6,116.79,66.79,115.39,66.55z"/>
	<path class="st0" d="M155.48,56.37c0.11,0.24,0.11,0.44,0,0.61c-0.11,0.29-0.26,0.44-0.44,0.44c-1.93,0.59-4.53,2.34-7.81,5.26
		c-0.64,0.59-1.31,1.09-2.02,1.49c-1.88,1.11-3.16,0.64-3.86-1.4c-0.46-1.51-0.76-2.69-0.88-3.51L140.22,59
		c-0.18,0-0.33,0.03-0.44,0.09l-0.44,0.44c-0.35,0.29-0.83,0.73-1.4,1.31c-0.59,0.59-1.05,1.03-1.4,1.31
		c-1.05,1.05-2.02,1.88-2.89,2.45c-0.59,0.46-1.16,0.79-1.75,0.96c-0.76,0.24-1.41,0.16-1.98-0.23c-0.55-0.38-0.89-0.95-1.01-1.72
		c-0.06-0.76,0-1.58,0.18-2.45c0.18-0.64,0.76-2.17,1.75-4.56c0.18-0.41,0.44-0.76,0.79-1.05c0.53-0.41,1.03-0.44,1.49-0.09
		c0.64,0.41,0.81,0.94,0.53,1.58c-0.94,1.93-1.46,3.02-1.58,3.24c-0.76,1.75-0.94,2.67-0.53,2.72c0.41,0.06,0.81-0.11,1.23-0.53
		c0.41-0.29,0.93-0.75,1.54-1.36c0.61-0.61,1.13-1.06,1.54-1.36c0.59-0.59,1.4-1.34,2.45-2.28c0.29-0.24,0.73-0.53,1.31-0.88
		c1.46-0.59,2.39-0.11,2.8,1.4c0.06,0.29,0.14,0.73,0.23,1.31c0.09,0.59,0.16,1.03,0.23,1.31c0.18,1.4,0.44,2.14,0.79,2.19
		c0.24,0.06,0.68-0.15,1.31-0.61c0.41-0.29,0.99-0.76,1.75-1.4s1.16-0.99,1.23-1.05c1.46-1.34,3.13-2.48,5-3.42
		c0.11-0.06,0.35-0.16,0.7-0.31c0.35-0.15,0.59-0.25,0.7-0.31C154.87,55.64,155.24,55.84,155.48,56.37z"/>
	<path class="st0" d="M171.91,62.92c0.04-0.05,0.06-0.09,0.1-0.13c1.68-3.22,4.71-5.62,7.98-7.4c-0.14-0.03-0.29-0.01-0.46,0.01
		c-0.59,0.11-1.03,0.26-1.31,0.44c-0.46,0.24-1.16,0.64-2.1,1.23c-2.05,1.29-4.21,3.24-6.49,5.87c-0.14,0.16-0.26,0.3-0.4,0.46
		c-0.06,0.09-0.11,0.18-0.18,0.26c-0.31,0.46-0.69,0.85-1.1,1.19c-1.74,1.98-3,3.33-3.77,4.06c-4.16,4.44-6.94,5.82-8.34,4.12
		c-1.23-1.34-1.46-4.09-0.7-8.25c0.11-0.81,0.7-3.46,1.75-7.9c0.24-1.05,0.81-2.17,1.75-3.33c5.56-6.84,10.4-14.76,14.56-23.78
		c0.59-1.29,1.14-2.84,1.67-4.64c0.24-0.53,0.29-1.16,0.18-1.93c-0.11-0.64-0.44-1.1-0.96-1.36c-0.53-0.26-1.05-0.23-1.58,0.13
		c-0.81,0.46-1.49,1.05-2.02,1.75c-1.46,1.93-2.63,3.59-3.51,5c-4.21,6.96-7.69,14.16-10.44,21.58c-0.81,2.1-1.67,3.51-2.54,4.21
		c-0.76,0.53-0.88,1.11-0.35,1.75c0.41,0.46,0.5,1.26,0.26,2.37c-0.99,3.51-1.53,6.49-1.58,8.95c0,1.4,0.11,2.67,0.35,3.77
		c0.29,1.64,0.98,2.93,2.07,3.86c1.08,0.94,2.38,1.08,3.91,0.44c1.16-0.41,2.04-0.81,2.63-1.23c1.64-1.23,2.95-2.34,3.94-3.33
		c0.34-0.29,1.46-1.51,3.36-3.64c0.01-0.03,0.03-0.04,0.04-0.06c0.68-0.91,1.36-1.83,2.1-2.69
		C171.07,64.11,171.46,63.51,171.91,62.92z M163.29,40.85c2.17-4.51,4.33-8.43,6.49-11.76l2.19-3.24c-0.46,1.35-1.14,2.87-2.02,4.56
		v0.09c-1.75,3.57-3.83,7.25-6.24,11.06c-0.11,0.11-0.25,0.29-0.4,0.53c-0.15,0.24-0.23,0.38-0.23,0.44
		c-0.29,0.46-0.46,0.7-0.53,0.7c-0.7,0.88-1.09,1.35-1.14,1.4L163.29,40.85z"/>
	<path class="st0" d="M239.15,38.08c-1.29-0.81-2.67-1.4-4.12-1.75c-3.51-0.99-7.66-1.23-12.46-0.7c-4.21,0.41-8.34,1.2-12.37,2.37
		c-0.06,0-0.2,0.06-0.44,0.18c-0.35,0.11-0.59,0.18-0.7,0.18c-0.18,0-0.24-0.11-0.18-0.35c0.11-0.46,0.24-1.11,0.35-1.93
		c0.11-0.88-0.18-1.4-0.88-1.58c-0.76-0.24-1.29-0.03-1.58,0.61c-0.06,0.18-0.18,0.43-0.35,0.75c-0.18,0.33-0.33,0.54-0.44,0.66
		c-0.59,1.4-1.03,2.49-1.31,3.24c-0.24,0.11-0.54,0.25-0.93,0.4c-0.38,0.15-0.6,0.23-0.66,0.23c-8.71,3.51-16.79,7.81-24.21,12.9
		c-1.1,0.76-2.62,1.93-4.53,3.47c-0.1,0.14-0.19,0.26-0.29,0.4c-0.58,0.71-1.28,1.29-1.93,1.93c-0.09,0.09-0.19,0.15-0.29,0.23
		c-0.05,0.08-0.1,0.16-0.16,0.24c-0.05,0.08-0.09,0.14-0.14,0.21c-0.08,0.11-0.16,0.2-0.24,0.3c-0.18,0.28-0.36,0.56-0.53,0.84
		c-0.58,0.94-1.13,1.89-1.75,2.8c-0.18,0.25-0.36,0.48-0.55,0.69c-0.03,0.35,0.01,0.69,0.2,1c0.2,0.36,0.53,0.58,0.91,0.74
		c0.38-0.51,0.78-1,1.19-1.49c0.34-0.58,0.71-1.14,1.14-1.69c0.05-0.06,0.1-0.13,0.14-0.18c2.07-3.88,6.08-6.59,10.09-8.43
		c5.95-3.97,12.61-7.56,19.99-10.79c0.53-0.18,0.85-0.18,0.96,0c0,0.29-0.03,0.53-0.09,0.7c-1.93,4.91-3.13,7.81-3.59,8.69
		l-3.42,7.11c-0.46,0.99-1.14,2.44-2.02,4.34c-0.88,1.9-1.53,3.32-1.93,4.26c-0.06,0.18-0.16,0.45-0.31,0.84
		c-0.15,0.38-0.25,0.66-0.31,0.84c-0.24,0.81,0.06,1.49,0.88,2.02c0.06,0.06,0.15,0.14,0.26,0.23c0.11,0.09,0.2,0.16,0.26,0.23
		c-0.06,0.18-0.13,0.44-0.23,0.79c-0.09,0.35-0.13,0.59-0.13,0.7c-0.24,0.59-0.55,1.5-0.96,2.77c-0.41,1.26-0.7,2.2-0.88,2.85
		c-0.11,0.29-0.26,0.71-0.44,1.28c-0.18,0.55-0.35,1.05-0.53,1.49s-0.38,0.84-0.61,1.19c-0.29,0.46-0.51,1.2-0.66,2.19
		c-0.15,0.99-0.28,1.67-0.4,2.02c-1.88,5.61-3.19,9.85-3.94,12.72c-0.59,1.7-1.55,2.84-2.89,3.42c-0.35,0.24-0.81,0.54-1.4,0.93
		c-0.59,0.38-1.11,0.75-1.58,1.1c-1.75,1.46-3.31,2.87-4.65,4.21c-0.76,0.7-1.49,1.64-2.19,2.8c-0.94,1.69-1.13,3.23-0.58,4.61
		c0.55,1.38,1.77,2.35,3.64,2.94c1.11,0.24,1.87,0.38,2.28,0.44h1.4c-0.11,0.41-0.26,0.98-0.44,1.72c-0.18,0.73-0.34,1.39-0.49,1.98
		c-0.15,0.59-0.28,1.11-0.4,1.58c-0.11,0.7-0.18,1.23-0.18,1.58c0,0.88,0.41,1.31,1.23,1.31c0.35,0,0.64-0.11,0.88-0.35
		s0.35-0.55,0.35-0.96c0-0.46,0.03-0.95,0.09-1.45c0.06-0.5,0.13-0.94,0.23-1.31c0.09-0.38,0.23-0.86,0.4-1.45
		c0.18-0.59,0.29-1.03,0.35-1.31c0.11-0.59,0.24-1.03,0.35-1.31c6.72-1.11,13.13-3.59,19.21-7.46c2.58-1.51,4.97-3.46,7.2-5.78
		c1.69-1.75,2.95-3.68,3.77-5.78c1.23-3.51,0.85-6.79-1.14-9.83c-0.99-1.51-2.34-2.84-4.03-3.94c-2.69-1.87-6.02-3.16-10-3.86
		c-0.18,0-0.46-0.08-0.88-0.23c-0.41-0.15-0.79-0.25-1.14-0.31c0.35-0.18,0.78-0.4,1.28-0.66c0.5-0.26,0.86-0.45,1.1-0.58
		c4.8-2.22,8.39-3.92,10.79-5.08c8.43-4.09,15.44-8.25,21.06-12.46c3.51-2.52,6.37-4.91,8.6-7.2c1.82-1.82,3.28-3.63,4.38-5.43
		c1.05-1.51,1.82-3.22,2.28-5.08C243.81,43.5,242.55,40.37,239.15,38.08z M178.72,118.97c0,0.06-0.85,0.09-2.54,0.09
		c-1.93-0.29-3.1-0.99-3.51-2.1c-0.24-0.64-0.15-1.38,0.26-2.19c0.64-1.4,1.95-3.04,3.94-4.91c0.29-0.24,1.93-1.46,4.91-3.68
		l0.53-0.26c-0.41,1.35-1.03,3.51-1.84,6.49C179.64,115.37,179.07,117.57,178.72,118.97z M203.98,89.84
		c1.46,0.94,2.67,2.08,3.59,3.42c1.87,2.58,2.19,5.32,0.96,8.25c-0.53,1.53-1.38,2.93-2.54,4.21c-2.05,2.05-3.48,3.37-4.29,3.94
		c-5.38,4.27-11.41,7.2-18.07,8.78c-1.05,0.24-1.88,0.35-2.45,0.35c0.11-0.81,0.24-1.38,0.35-1.67c0.46-1.82,1.49-5.56,3.07-11.23
		c0.29-1.05,0.85-1.78,1.67-2.19c5.56-2.69,9.44-4.29,11.67-4.82l0.26-0.09c0.18-0.06,0.29-0.11,0.35-0.18
		c0.29-0.41,0.44-0.73,0.44-0.96c-0.06-0.29-0.26-0.55-0.61-0.79c-0.35-0.18-0.74-0.2-1.14-0.09c-0.88,0.24-1.88,0.55-2.98,0.96
		c-0.76,0.29-1.89,0.78-3.38,1.45c-1.49,0.68-2.62,1.19-3.38,1.54c-0.24,0.11-0.64,0.29-1.23,0.53c0.11-1.05,0.76-3.48,1.93-7.29
		c1.16-3.81,2.04-6.37,2.63-7.72h1.93C197.07,86.59,200.82,87.8,203.98,89.84z M240.64,46.68c-0.29,1.4-0.88,2.87-1.75,4.38
		c-1.4,2.1-2.8,3.86-4.21,5.26c-2.1,2.1-4.86,4.44-8.25,7.02c-5.43,4.09-12.11,8.1-20.01,12.02c-1.4,0.64-3.51,1.63-6.32,2.94
		c-2.8,1.31-4.91,2.33-6.31,3.03c-0.35,0.18-0.9,0.38-1.67,0.61c0.11-0.29,0.24-0.69,0.35-1.19s0.24-0.86,0.35-1.1
		c0.18-0.53,0.89-2.6,2.15-6.22c1.25-3.63,2.07-5.93,2.42-6.94c0.35-0.99,1.06-2.97,2.15-5.92c1.08-2.95,1.95-5.23,2.63-6.85
		c0.68-1.6,1.5-3.57,2.5-5.87c0.99-2.3,1.99-4.46,2.98-6.45c2.22-0.81,5.15-1.6,8.78-2.37c3.33-0.7,6.31-1.08,8.95-1.14
		c3.16-0.18,6.05,0.06,8.69,0.7c1.29,0.24,2.6,0.79,3.94,1.67C240.29,41.86,241.17,43.99,240.64,46.68z"/>
	<path class="st0" d="M240.73,79.58c0.24,0.29,0.29,0.64,0.18,1.05c-0.06,0.24-0.26,0.53-0.61,0.88c-3.16,2.69-5.03,4.27-5.61,4.73
		c-0.83,0.7-1.97,1.46-3.42,2.28c-0.76,0.41-1.53,0.64-2.28,0.7c-2.17,0.24-3.59-0.68-4.29-2.72c0-0.11-0.03-0.31-0.09-0.58
		c-0.06-0.26-0.1-0.5-0.13-0.7c-0.03-0.2-0.04-0.4-0.04-0.58c0.18-3.22,1.05-5.93,2.63-8.16c0.24-0.41,0.61-0.76,1.14-1.05
		c0.7-0.53,1.34-0.38,1.93,0.44c0.18,0.29,0.24,0.61,0.18,0.96c0,0.29-0.18,0.59-0.53,0.88c-1.88,1.53-2.8,3.98-2.8,7.37
		c0,1.75,0.85,2.32,2.54,1.67c1.23-0.46,2.28-1.03,3.16-1.67c0.59-0.46,1.41-1.16,2.5-2.1c1.08-0.94,1.8-1.55,2.15-1.84
		c0.41-0.29,0.96-0.79,1.67-1.49c0.24-0.24,0.5-0.35,0.79-0.35C240.24,79.32,240.55,79.41,240.73,79.58z M230.04,73.96
		c-0.7-0.29-0.96-0.79-0.79-1.49c0.41-1.29,1.08-2.54,2.02-3.77c0.41-0.53,0.9-0.59,1.49-0.18c0.11,0.06,0.35,0.35,0.7,0.88
		c0,0.18-0.06,0.44-0.18,0.79c-0.18,0.35-0.45,0.88-0.84,1.58c-0.38,0.7-0.66,1.23-0.84,1.58C231.26,74,230.74,74.2,230.04,73.96z"
		/>
	<path class="st0" d="M268.1,53.27c0.76,0.11,1.08,0.55,0.96,1.31c-0.11,0.64-0.46,0.96-1.05,0.96h-1.4c-3.11,0-5.41,0.03-6.94,0.09
		c-0.29,0-0.74,0.05-1.31,0.13c-0.59,0.09-0.9,0.14-0.96,0.14c-0.11,0.24-0.29,0.53-0.53,0.88s-0.41,0.64-0.53,0.88
		c-4.03,6.96-8.45,13.45-13.25,19.48c-0.59,0.81-0.99,1.55-1.23,2.19c-1.35,4.09-2.14,7.66-2.37,10.7c0,1.46,0.06,2.58,0.18,3.33
		c0,0.29,0.11,0.74,0.35,1.31c0.46,1.11,1.25,1.49,2.37,1.14c0.88-0.29,1.69-0.68,2.45-1.14c1.51-0.99,2.8-1.99,3.86-2.98
		c3.46-2.98,6.49-6.29,9.13-9.92c0.59-0.81,1.05-1.43,1.4-1.84c0.24-0.35,0.55-0.46,0.96-0.35c0.41,0,0.68,0.24,0.79,0.7
		c0.18,0.41,0.11,0.76-0.18,1.05c-0.35,0.46-0.86,1.11-1.54,1.93c-0.68,0.81-1.19,1.46-1.54,1.93c-3.16,3.98-6.29,7.2-9.39,9.65
		c-1.35,1.05-2.67,1.9-3.94,2.54c-2.17,0.81-3.82,0.84-4.96,0.04c-1.14-0.79-1.83-2.09-2.07-3.91c-0.29-2.52-0.03-5.47,0.79-8.86
		c0.06-0.35,0.13-0.7,0.23-1.05c0.09-0.35,0.19-0.75,0.31-1.19c0.11-0.44,0.2-0.8,0.26-1.1c-0.06-0.11-0.18-0.26-0.35-0.44
		c-0.18-0.18-0.29-0.33-0.35-0.44c-0.46-0.46-0.5-1.03-0.09-1.67c0.35-0.46,0.88-1.11,1.58-1.93c0.59-0.59,1.08-1.4,1.49-2.45
		c2.1-5.61,4.53-11.08,7.29-16.4c0.06-0.06,0.09-0.13,0.09-0.23c0-0.09,0.03-0.16,0.09-0.23l0.61-1.23h-1.4h-0.44
		c-0.65,0-1.63,0.01-2.94,0.05c-1.31,0.03-2.29,0.04-2.94,0.04c-0.7,0-1.23-0.03-1.58-0.09c-0.7-0.11-1.05-0.53-1.05-1.23
		c0-0.76,0.35-1.2,1.05-1.31h1.58c0.99-0.06,2.5-0.1,4.52-0.14c2.02-0.03,3.56-0.04,4.61-0.04c0.46-0.7,0.85-1.23,1.14-1.58
		c2.1-3.28,3.74-5.7,4.91-7.29c0.29-0.41,1.08-1.2,2.37-2.37c0.7-0.59,1.4-0.64,2.1-0.18c0.76,0.35,1.08,0.96,0.96,1.84
		c-0.06,0.7-0.26,1.58-0.61,2.63c-0.35,1.05-0.99,2.58-1.93,4.56c-0.06,0.18-0.16,0.45-0.31,0.84c-0.15,0.38-0.28,0.71-0.4,1.01
		h7.29C266.67,53.09,267.29,53.14,268.1,53.27z M245.65,69.32c2.63-3.04,5.41-7.49,8.34-13.33c-0.64,0-1.08,0.03-1.31,0.09
		c-0.35,0.11-0.55,0.29-0.61,0.53c-1.4,2.45-2.63,4.77-3.68,6.94v0.09L245.65,69.32z M258.63,46.68c0.18-0.94-0.88,0.41-3.16,4.03
		l-1.75,2.8h1.93l1.23-2.45v-0.09c0.24-0.41,0.49-0.93,0.75-1.54c0.26-0.61,0.49-1.06,0.66-1.36
		C258.4,47.73,258.51,47.27,258.63,46.68z"/>
	<path class="st0" d="M278.72,80.11c0.18,0.46,0.06,0.88-0.35,1.23c-0.06,0-0.09,0.01-0.09,0.04s-0.03,0.05-0.09,0.05l-0.44,0.18
		c-0.06,0-0.11,0.03-0.18,0.09c-0.53,0.24-2.08,0.99-4.65,2.28c-0.46,0.24-1.2,0.61-2.19,1.14c-0.99,0.53-1.77,0.94-2.33,1.23
		c-0.55,0.29-1.28,0.6-2.15,0.93c-0.88,0.33-1.7,0.58-2.45,0.75c-2.23,0.35-3.83,0.24-4.82-0.35c-1.18-0.7-1.69-1.78-1.58-3.24
		c0-0.46,0.05-0.94,0.13-1.4c0.09-0.46,0.2-0.99,0.35-1.58c0.15-0.59,0.25-1.05,0.31-1.4c0-0.06,0.03-0.11,0.09-0.18
		c0.24-0.24,0.71-0.79,1.45-1.67c0.73-0.88,1.28-1.5,1.63-1.89c0.35-0.38,0.86-0.85,1.54-1.4c0.68-0.55,1.33-1.01,1.98-1.36
		c0.24-0.11,0.64-0.29,1.23-0.53c0.18-0.11,0.44-0.24,0.79-0.35c1.16-0.24,1.99,0,2.45,0.7c0.53,0.76,0.55,1.53,0.09,2.28
		c-0.29,0.59-0.76,1.25-1.4,2.02c-1.75,1.82-3.92,3.11-6.5,3.86c-0.76,0.11-1.25,0.38-1.49,0.79c-0.48,1.23-0.55,2.17-0.26,2.8
		c0.35,0.76,1.23,1.09,2.63,0.96c0.18,0,0.29-0.03,0.35-0.09c2.17-0.29,5.17-1.51,9.04-3.68c2.52-1.34,4.03-2.13,4.56-2.37
		c0.35-0.18,0.76-0.33,1.23-0.44C278.17,79.37,278.54,79.58,278.72,80.11z M267.31,74.57c-0.53-0.06-1.29,0.33-2.28,1.14
		c-0.99,0.81-1.84,1.64-2.54,2.45l-1.05,1.31c4.38-2.39,6.44-3.98,6.13-4.73L267.31,74.57z"/>
	<path class="st0" d="M292.49,79.76c0.29,0.46,0.15,0.9-0.44,1.31c-0.59,0.29-0.91,0.46-0.96,0.53c-3.86,2.17-7.16,4.62-9.92,7.37
		c-0.06,0.06-0.13,0.11-0.23,0.18c-0.09,0.06-0.18,0.15-0.26,0.26c-0.09,0.11-0.16,0.2-0.23,0.26c0.18,1.23,0.38,2.93,0.61,5.08
		c0.41,2.87,0.35,5.85-0.18,8.95c-0.35,2.1-1.09,4.07-2.19,5.87c-0.99,1.35-2.1,2.34-3.33,2.98c-1.58,0.76-3.03,0.79-4.34,0.09
		c-1.31-0.7-2.09-1.93-2.33-3.68c-0.18-1.34-0.09-2.69,0.26-4.03c0.59-2.23,1.35-4.16,2.28-5.78c1.4-2.8,3.28-5.52,5.61-8.16
		c0.76-0.88,0.99-1.82,0.7-2.8c-0.29-0.88-0.61-2.19-0.96-3.94c-0.18-1.29-0.24-2.39-0.18-3.33c0.11-1.69,0.88-3.02,2.28-3.94
		c0.59-0.41,1.16-0.44,1.75-0.09c0.7,0.29,0.99,0.85,0.88,1.67c0.11,0.59-0.11,0.99-0.7,1.23c-0.59,0.24-1.05,0.41-1.4,0.53
		c-0.41,1.64-0.15,4.01,0.79,7.11c0.18-0.11,0.43-0.31,0.75-0.58c0.33-0.26,0.58-0.49,0.75-0.66c1.99-1.75,4.8-3.77,8.43-6.05
		c0.46-0.35,0.85-0.59,1.14-0.7C291.79,79.11,292.26,79.23,292.49,79.76z M278.63,103.88c0.53-2.75,0.61-5.5,0.26-8.25
		c-0.06-0.41-0.15-1.04-0.26-1.89c-0.11-0.85-0.2-1.39-0.26-1.63c-0.11,0.06-0.29,0.2-0.53,0.44c-3.22,3.81-5.43,7.6-6.66,11.41
		c-0.53,1.53-0.73,2.84-0.61,3.94c0,0.53,0.09,1.05,0.26,1.58c0.53,1.58,1.6,2.08,3.24,1.49c0.99-0.35,1.9-1.11,2.72-2.28
		C277.73,107.3,278.34,105.69,278.63,103.88z"/>
</g>
<path class="st0" d="M170.88,73.85c-0.03-0.01-0.19,0.01-0.2,0l-5.65,19.39c-0.15,0.53,0.03,1.05,0.41,1.16
	c0.38,0.11,0.81-0.24,0.96-0.76l5.67-19.44C171.62,74.14,171.33,73.97,170.88,73.85z"/>
<circle class="st1" cx="173.71" cy="66.24" r="9.11"/>
<g>
	<path class="st0" d="M182.21,69.64c-0.21,0.61-0.79,2.02-1.23,2.48s-1.24,0.68-1.74,0.26c-0.49-0.4-0.61-1.29-1.25-1.35
		c-0.51-0.05-0.94,0.56-1.45,0.48c-0.71-0.11-0.6-1.2-1.01-1.79c-0.46-0.65-1.46-0.54-2.22-0.25s-1.58,0.69-2.3,0.36
		c-0.81-0.35-1.11-1.45-1.93-1.82c-1.24-0.54-2.65,0.94-3.92,0.46c-0.96-0.35-1.21-1.64-0.95-2.63c0.26-0.99,0.4-1.21,0.75-2.18
		c1.88-5.15,5.85-8.04,11.31-6.2C182.42,59.56,183.69,65.27,182.21,69.64z"/>
</g>
<g>
	<g>
		<path class="st2" d="M168.78,81.07c-0.85-0.94-3.32-2.62-4.34-1.03c-0.4,0.61-0.46,1.7-0.06,2.33c0.4,0.63,1.23,0.83,1.93,0.75
			c1.01-0.11,1.89-0.75,2.79-1.16c1.03-0.48,2.25-0.91,3.41-0.78c0.75,0.09,0.7,0.66,0.15,1.01c-0.48,0.29-1.13,0.34-1.65,0.24
			c-0.9-0.18-1.7-0.95-2.67-0.54c-0.84,0.35-1.55,1.34-2.09,2.04c-0.68,0.89-1.2,1.88-1.6,2.92c0.29,0.04,0.58,0.09,0.88,0.13
			c0.35-1.29,1.05-2.87,2.25-3.58c0.64-0.38,1.4-0.31,1.84,0.31c0.35,0.49,0.54,1.09,0.88,1.6c1.26,1.93,3.51,3.32,5.86,2.99
			c0.51-0.08,0.68-0.79,0.08-0.7c-1.43,0.2-2.77-0.34-3.84-1.25c-0.53-0.45-0.99-0.99-1.35-1.59c-0.35-0.56-0.54-1.25-1-1.72
			c-0.89-0.9-2.33-0.64-3.26,0.05c-1.18,0.88-1.94,2.38-2.32,3.77c-0.14,0.53,0.71,0.53,0.88,0.13c0.33-0.86,0.75-1.68,1.28-2.44
			c0.24-0.34,0.49-0.66,0.76-0.98c0.28-0.31,0.59-0.76,0.96-0.96c0.49-0.26,0.98,0.13,1.44,0.31c0.39,0.15,0.79,0.24,1.2,0.26
			c0.74,0.04,1.59-0.13,2.18-0.58c0.44-0.34,0.86-0.94,0.6-1.5c-0.33-0.7-1.35-0.66-1.99-0.63c-0.89,0.05-1.75,0.29-2.59,0.61
			c-0.91,0.36-1.77,1-2.72,1.26c-0.45,0.13-0.99,0.11-1.33-0.26c-0.34-0.38-0.3-1.04-0.18-1.5c0.11-0.43,0.39-0.5,0.8-0.39
			c0.24,0.06,0.48,0.16,0.7,0.26c0.5,0.24,0.95,0.6,1.33,1.01C168.25,81.81,169.1,81.42,168.78,81.07L168.78,81.07z"/>
	</g>
</g>
<g>
	<g>
		<path d="M172.97,62.07c0,0.08,0,0.14,0,0.21c0,0.03,0.04,0.01,0.04,0c0-0.08,0-0.14,0-0.21
			C173.01,62.05,172.97,62.05,172.97,62.07L172.97,62.07z"/>
	</g>
</g>
<g>
	<path class="st0" d="M170.4,60.08"/>
	<g>
		<path class="st2" d="M170.39,60.21c0.21,0,0.28-0.28,0.03-0.28C170.2,59.94,170.14,60.21,170.39,60.21L170.39,60.21z"/>
	</g>
</g>
<g>
	<path class="st0" d="M172.14,63.47c0,0.09,0,0.18,0,0.25"/>
	<g>
		<path class="st2" d="M171.96,63.49c0,0.09,0,0.18,0,0.25c0,0.01,0,0.03,0.01,0.04c0,0.01,0.01,0.03,0.03,0.03
			c0.04,0.01,0.09,0.03,0.13,0.01c0.05-0.01,0.1-0.03,0.14-0.05c0.01-0.01,0.03-0.01,0.04-0.03c0.01-0.01,0.03-0.04,0.04-0.05
			c0-0.09,0-0.18,0-0.25c0-0.01,0-0.03-0.01-0.04c0-0.01-0.01-0.03-0.03-0.03c-0.04-0.01-0.09-0.03-0.13-0.01
			c-0.05,0.01-0.1,0.03-0.14,0.05c-0.01,0.01-0.03,0.01-0.04,0.03C171.98,63.46,171.97,63.47,171.96,63.49L171.96,63.49z"/>
	</g>
</g>
<g>
	<path class="st0" d="M168.54,63.31"/>
	<g>
		<path class="st2" d="M168.51,63.43c0.2,0,0.29-0.25,0.04-0.25C168.35,63.17,168.28,63.43,168.51,63.43L168.51,63.43z"/>
	</g>
</g>
<g>
	<path class="st0" d="M175.88,64.2c-0.01-0.24,0.01-0.49,0.09-0.71"/>
	<g>
		<path class="st2" d="M176.05,64.15c-0.01-0.24,0.03-0.48,0.09-0.69c0.01-0.03-0.01-0.05-0.04-0.06c-0.04-0.01-0.09-0.01-0.11-0.01
			c-0.06,0.01-0.19,0.04-0.21,0.11c-0.08,0.24-0.11,0.49-0.1,0.74c0,0.03,0.05,0.04,0.08,0.05c0.04,0.01,0.1,0,0.14-0.01
			C175.95,64.26,176.06,64.22,176.05,64.15L176.05,64.15z"/>
	</g>
</g>
<g>
	<path class="st0" d="M169.98,61.99c-0.01,0.21,0.04,0.44,0.14,0.63"/>
	<g>
		<path class="st2" d="M169.79,62.03c-0.01,0.21,0.04,0.44,0.14,0.63c0.01,0.03,0.05,0.03,0.06,0.03c0.04,0,0.09-0.01,0.14-0.03
			c0.04-0.01,0.09-0.03,0.13-0.05c0.01-0.01,0.05-0.03,0.05-0.05c-0.1-0.2-0.14-0.41-0.14-0.63c0-0.03-0.06-0.03-0.06-0.03
			c-0.04,0-0.09,0.01-0.14,0.03c-0.04,0.01-0.09,0.03-0.13,0.05C169.82,61.99,169.79,62.02,169.79,62.03L169.79,62.03z"/>
	</g>
</g>
<g>
	<path class="st0" d="M174.56,60.97"/>
	<g>
		<path class="st2" d="M174.55,61.1c0.21,0,0.28-0.28,0.03-0.28C174.36,60.83,174.3,61.1,174.55,61.1L174.55,61.1z"/>
	</g>
</g>
<g>
	<path class="st0" d="M178.29,65.17c0-0.1,0-0.2,0-0.3"/>
	<g>
		<path class="st2" d="M178.48,65.12c0-0.1,0-0.2,0-0.3c0-0.03-0.05-0.04-0.06-0.04c-0.04,0-0.09,0-0.14,0.01
			c-0.04,0.01-0.09,0.03-0.13,0.05c-0.01,0.01-0.01,0.01-0.03,0.03c-0.01,0.01-0.01,0.03-0.01,0.04c0,0.1,0,0.2,0,0.3
			c0,0.03,0.05,0.04,0.06,0.04c0.04,0,0.09,0,0.14-0.01c0.04-0.01,0.09-0.03,0.13-0.05c0.01-0.01,0.01-0.01,0.03-0.03
			C178.47,65.15,178.48,65.13,178.48,65.12L178.48,65.12z"/>
	</g>
</g>
<g>
	<path class="st0" d="M177.85,61.65c0.18,0.3,0.35,0.59,0.53,0.89"/>
	<g>
		<path class="st2" d="M177.68,61.7c0.18,0.3,0.35,0.59,0.53,0.89c0.03,0.05,0.15,0.01,0.2,0c0.03,0,0.19-0.06,0.16-0.1
			c-0.18-0.3-0.35-0.59-0.53-0.89c-0.03-0.05-0.15-0.01-0.2,0C177.82,61.6,177.65,61.67,177.68,61.7L177.68,61.7z"/>
	</g>
</g>
<g>
	<g>
		<path class="st0" d="M176.48,59.89c0.08,0,0.41-0.14,0.24-0.14C176.64,59.75,176.31,59.89,176.48,59.89L176.48,59.89z"/>
	</g>
</g>
<g>
	<path class="st0" d="M176.6,59.78"/>
	<g>
		<path class="st2" d="M176.53,59.88c0.13,0,0.39-0.19,0.15-0.19C176.55,59.69,176.28,59.88,176.53,59.88L176.53,59.88z"/>
	</g>
</g>
<g>
	<path class="st0" d="M173.96,62.54"/>
	<g>
		<path class="st2" d="M173.88,62.62c0.11,0,0.39-0.16,0.15-0.16C173.93,62.46,173.65,62.62,173.88,62.62L173.88,62.62z"/>
	</g>
</g>
<g>
	<path class="st0" d="M180.07,63.81"/>
	<g>
		<path class="st2" d="M180.01,63.92c0.14,0,0.39-0.21,0.14-0.21C180.01,63.71,179.76,63.92,180.01,63.92L180.01,63.92z"/>
	</g>
</g>
<g>
	<path class="st0" d="M180.03,65.64"/>
	<g>
		<path class="st2" d="M180.02,65.77c0.21,0,0.28-0.29,0.03-0.29C179.83,65.5,179.77,65.77,180.02,65.77L180.02,65.77z"/>
	</g>
</g>
<g>
	<path class="st0" d="M172.82,59.23c0,0.2,0,0.4,0,0.59"/>
	<g>
		<path class="st2" d="M172.63,59.24c0,0.2,0,0.4,0,0.59c0,0.04,0.01,0.08,0.05,0.1c0.04,0.03,0.09,0.04,0.13,0.03
			c0.05,0,0.1-0.03,0.14-0.05c0.03-0.03,0.06-0.06,0.06-0.1c0-0.2,0-0.4,0-0.59c0-0.04-0.01-0.08-0.05-0.1
			c-0.04-0.03-0.09-0.04-0.13-0.03c-0.05,0-0.1,0.03-0.14,0.05C172.67,59.16,172.63,59.2,172.63,59.24L172.63,59.24z"/>
	</g>
</g>
</svg>
