<?xml version="1.0" encoding="utf-8"?>
<!-- Generator: Adobe Illustrator 27.2.0, SVG Export Plug-In . SVG Version: 6.00 Build 0)  -->
<svg version="1.1" id="Layer_1" xmlns="http://www.w3.org/2000/svg" xmlns:xlink="http://www.w3.org/1999/xlink" x="0px" y="0px"
	 viewBox="0 0 300 300" style="enable-background:new 0 0 300 300;" xml:space="preserve">
<style type="text/css">
	.st0{fill:#A87284;}
	.st1{fill:#A87284;stroke:#A87284;stroke-width:0.25;stroke-miterlimit:10;}
	.st2{fill:#FFFFFF;}
</style>
<g>
	<g>
		<path class="st0" d="M71.99,163.56h1.71c0.94,0,1.44,0.5,1.44,1.21c0,0.58-0.35,0.96-0.76,1.07c0.35,0.1,0.93,0.44,0.93,1.21
			c0,0.98-0.74,1.42-1.59,1.42h-1.74V163.56z M73.57,165.67c0.85,0,1.17-0.32,1.17-0.88c0-0.48-0.34-0.88-1.02-0.88h-1.36v1.76
			H73.57z M72.36,168.11h1.38c0.64,0,1.18-0.32,1.18-1.04c0-0.62-0.4-1.05-1.39-1.05h-1.18V168.11z"/>
		<path class="st0" d="M77.2,166.77l-0.62,1.7h-0.39l1.8-4.9h0.45l1.88,4.9H79.9l-0.64-1.7H77.2z M79.14,166.42
			c-0.55-1.46-0.83-2.16-0.92-2.49h-0.01c-0.12,0.37-0.43,1.24-0.88,2.49H79.14z"/>
		<path class="st0" d="M81.5,163.56h0.38v2.55c0.39-0.38,1.79-1.7,2.67-2.55h0.5l-2.2,2.09l2.33,2.82h-0.47l-2.13-2.57l-0.7,0.62
			v1.96H81.5V163.56z"/>
		<path class="st0" d="M89,166.05h-2.5v2.06h2.74l-0.06,0.35h-3.06v-4.9h3v0.35H86.5v1.79H89V166.05z"/>
		<path class="st0" d="M90.91,166.17v2.29h-0.39v-4.9h1.76c0.97,0,1.48,0.52,1.48,1.29c0,0.62-0.37,1.03-0.92,1.15
			c0.5,0.12,0.84,0.45,0.84,1.28v0.19c0,0.34-0.03,0.81,0.06,1h-0.39c-0.09-0.21-0.07-0.6-0.07-1.02v-0.12
			c0-0.81-0.24-1.14-1.18-1.14H90.91z M90.91,165.82h1.18c0.86,0,1.26-0.32,1.26-0.97c0-0.6-0.39-0.95-1.16-0.95h-1.29V165.82z"/>
		<path class="st0" d="M96.32,168.46v-1.84c0-0.04-0.01-0.09-0.03-0.11l-1.75-2.95h0.44c0.49,0.83,1.34,2.28,1.56,2.65
			c0.21-0.36,1.07-1.8,1.6-2.65h0.42l-1.83,2.98c-0.01,0.03-0.02,0.06-0.02,0.11v1.82H96.32z"/>
		<path class="st0" d="M105.67,165.31l-1.22,1.89c-0.6,0.92-1.02,1.33-1.81,1.33c-0.8,0-1.27-0.64-1.27-1.25
			c0-0.59,0.27-1.05,1.31-1.61c0.71-0.46,0.98-0.66,0.98-1.11c0-0.38-0.25-0.76-0.71-0.76c-0.44,0-0.75,0.27-0.75,0.78
			c0,0.32,0.22,0.61,0.64,1.01l2.9,2.86h-0.53l-2.65-2.61c-0.46-0.43-0.72-0.76-0.72-1.25c0-0.55,0.37-1.11,1.12-1.11
			c0.63,0,1.06,0.48,1.06,1.08c0,0.48-0.26,0.78-1.12,1.32c-0.99,0.56-1.16,0.9-1.16,1.37c0,0.5,0.43,0.93,0.89,0.93
			c0.57,0,0.95-0.2,1.58-1.21l1.04-1.67H105.67z"/>
		<path class="st0" d="M112.88,167.15c-0.23,0.78-0.81,1.37-1.84,1.37c-1.41,0-2.15-1.12-2.15-2.5c0-1.32,0.73-2.53,2.16-2.53
			c1.06,0,1.68,0.59,1.84,1.41h-0.38c-0.22-0.64-0.64-1.06-1.48-1.06c-1.22,0-1.73,1.11-1.73,2.17c0,1.05,0.5,2.16,1.76,2.16
			c0.8,0,1.21-0.41,1.45-1.02H112.88z"/>
		<path class="st0" d="M114.69,166.77l-0.62,1.7h-0.39l1.8-4.9h0.45l1.88,4.9h-0.41l-0.64-1.7H114.69z M116.63,166.42
			c-0.55-1.46-0.83-2.16-0.92-2.49h-0.01c-0.12,0.37-0.43,1.24-0.88,2.49H116.63z"/>
		<path class="st0" d="M118.99,163.56h0.38v2.55c0.39-0.38,1.79-1.7,2.67-2.55h0.5l-2.2,2.09l2.33,2.82h-0.47l-2.13-2.57l-0.7,0.62
			v1.96h-0.38V163.56z"/>
		<path class="st0" d="M126.48,166.05h-2.5v2.06h2.74l-0.06,0.35h-3.06v-4.9h3v0.35h-2.63v1.79h2.5V166.05z"/>
		<path class="st0" d="M130.14,163.56h1.75c0.9,0,1.51,0.5,1.51,1.37c0,0.88-0.61,1.4-1.56,1.4h-1.32v2.14h-0.39V163.56z
			 M130.53,165.97h1.35c0.79,0,1.12-0.42,1.12-1.04c0-0.66-0.43-1.03-1.09-1.03h-1.38V165.97z"/>
		<path class="st0" d="M138.87,165.97c0,1.34-0.71,2.56-2.23,2.56c-1.38,0-2.19-1.11-2.19-2.52c0-1.39,0.78-2.52,2.23-2.52
			C138.03,163.49,138.87,164.54,138.87,165.97z M134.86,165.99c0,1.13,0.62,2.19,1.8,2.19c1.27,0,1.8-1.04,1.8-2.2
			c0-1.14-0.6-2.14-1.79-2.14C135.41,163.84,134.86,164.88,134.86,165.99z"/>
		<path class="st0" d="M140.26,163.56h1.75c0.9,0,1.51,0.5,1.51,1.37c0,0.88-0.61,1.4-1.56,1.4h-1.32v2.14h-0.39V163.56z
			 M140.65,165.97H142c0.79,0,1.12-0.42,1.12-1.04c0-0.66-0.43-1.03-1.09-1.03h-1.38V165.97z"/>
		<path class="st0" d="M144.9,167.14c0.15,0.65,0.58,1.04,1.39,1.04c0.9,0,1.24-0.45,1.24-0.98c0-0.55-0.25-0.9-1.32-1.16
			c-1.04-0.26-1.48-0.6-1.48-1.3c0-0.64,0.47-1.25,1.52-1.25c1.08,0,1.53,0.66,1.6,1.25h-0.39c-0.11-0.52-0.46-0.9-1.23-0.9
			c-0.71,0-1.09,0.33-1.09,0.88c0,0.54,0.32,0.75,1.23,0.97c1.38,0.34,1.58,0.9,1.58,1.48c0,0.72-0.53,1.34-1.66,1.34
			c-1.23,0-1.67-0.71-1.77-1.37H144.9z"/>
	</g>
</g>
<g>
	<path class="st1" d="M93.11,122.76c0.56,0.09,0.84,0.35,0.84,0.77c0.09,0.42-0.16,0.68-0.77,0.77c-1.82,0.09-3.2,0.21-4.13,0.35
		c-3.74,0.47-7.12,1.07-10.16,1.82c-0.05,0.19-0.16,0.46-0.35,0.81c-0.19,0.35-0.3,0.62-0.35,0.81
		c-3.32,7.43-7.36,13.92-12.12,19.48c-2.85,3.36-6.14,6.33-9.88,8.9c-3.08,2.15-6.17,3.57-9.25,4.27c-1.54,0.37-3.01,0.47-4.41,0.28
		c-2.76-0.47-4.2-2.06-4.34-4.76c-0.05-1.36,0.19-2.71,0.7-4.06c0.79-2.06,1.85-3.92,3.15-5.61c2.1-2.85,4.81-5.63,8.13-8.34
		c5.37-4.34,11.65-7.8,18.85-10.37c1.68-0.61,4.25-1.42,7.71-2.45c0.61-0.19,1.03-0.56,1.26-1.12c2.05-5.7,3.18-10.88,3.36-15.55
		c0.09-2.06-0.12-4.02-0.63-5.89c-0.14-0.65-0.35-1.28-0.63-1.89c-1.17-2.76-3.36-4.04-6.59-3.85c-1.64,0.05-3.55,0.54-5.75,1.47
		c-3.36,1.45-6.38,3.27-9.04,5.47c-6.31,4.81-11.87,10.72-16.68,17.73c-0.28,0.42-0.64,1.03-1.09,1.82
		c-0.44,0.79-0.76,1.33-0.95,1.61c-0.05,0.09-0.11,0.25-0.18,0.46c-0.07,0.21-0.13,0.36-0.18,0.46c0.23,0.05,0.54,0.12,0.91,0.21
		c0.37,0.09,0.61,0.33,0.7,0.7c0.09,0.37,0,0.68-0.28,0.91c-0.79,0.79-1.66,1.26-2.59,1.4c-0.47,0.09-0.84,0-1.12-0.28
		c-0.33-0.33-0.47-0.68-0.42-1.05c0-0.56,0.09-1.1,0.28-1.61c0.42-0.98,1-2.15,1.75-3.5c1.22-2.2,2.83-4.51,4.83-6.94
		c4.34-5.37,8.94-9.9,13.8-13.59c2.76-2.1,5.63-3.83,8.62-5.18c2.01-1.03,3.92-1.66,5.75-1.89c1.35-0.19,2.5-0.21,3.43-0.07
		c2.52,0.28,4.46,1.52,5.82,3.71c0.79,1.36,1.4,3.11,1.82,5.26c0.42,2.62,0.35,5.65-0.21,9.11c-0.42,2.76-1.24,5.93-2.45,9.53
		c-0.09,0.19-0.2,0.47-0.32,0.84c-0.12,0.37-0.22,0.68-0.32,0.91c0.61-0.09,1.47-0.23,2.59-0.42c1.12-0.19,1.94-0.33,2.45-0.42
		c1.68-0.28,4.02-0.58,7.01-0.91C91.99,122.78,92.46,122.76,93.11,122.76z M76.37,128.16c0.05-0.09,0.16-0.42,0.35-0.98
		c-0.14,0.05-0.34,0.07-0.6,0.07c-0.26,0-0.43,0.02-0.53,0.07c-3.64,1.03-7.24,2.34-10.79,3.92c-6.82,3.04-12.75,7.03-17.8,11.98
		c-1.68,1.68-3.25,3.57-4.69,5.68c-0.89,1.4-1.56,2.8-2.03,4.2c-0.42,1.21-0.58,2.27-0.49,3.15c0.14,1.63,0.98,2.66,2.52,3.08
		l1.47,0.21c1.12,0.05,2.41-0.16,3.85-0.63c2.19-0.56,4.67-1.73,7.43-3.5c3.6-2.34,7.05-5.47,10.37-9.39
		C69.64,141.07,73.28,135.12,76.37,128.16z"/>
	<path class="st1" d="M102.64,123.39c0.19,0.05,0.33,0.16,0.42,0.35c0.09,0.19,0.12,0.35,0.07,0.49c0,0.51-0.23,0.72-0.7,0.63
		c-1.03,0-1.8-0.02-2.31-0.07h-2.17c-0.14,1.54-0.71,3.23-1.72,5.08c-1.01,1.85-2.18,2.77-3.54,2.77c-0.75,0-1.31-0.4-1.68-1.19
		c-0.37-0.75-0.49-1.49-0.35-2.24c0.37-2.8,1.4-5.26,3.08-7.36c0.61-0.79,1.38-1.07,2.31-0.84h0.28c0.84,0.33,1.35,1.05,1.54,2.17
		c0.98,0.14,2.1,0.16,3.36,0.07C101.61,123.25,102.08,123.3,102.64,123.39z M93.6,130.19c0.7-0.47,1.31-1.39,1.82-2.77
		c0.51-1.38,0.77-2.53,0.77-3.47c0-0.09-0.05-0.23-0.14-0.42c-0.09-0.09-0.23-0.14-0.42-0.14c-0.93,0-1.87,1.64-2.8,4.9
		c-0.14,0.56-0.19,1.05-0.14,1.47c0,0.23,0.12,0.4,0.35,0.49C93.28,130.35,93.46,130.33,93.6,130.19z"/>
	<path class="st1" d="M123.59,123.67c0.05,0.28-0.02,0.49-0.21,0.63c-0.05,0-0.12,0.04-0.21,0.11c-0.09,0.07-0.19,0.13-0.28,0.18
		c-2.8,1.73-5.61,3.74-8.41,6.03c-0.66,0.56-1.1,1.26-1.33,2.1c-1.92,6.45-4.55,12.26-7.92,17.45c-0.75,1.07-1.47,1.94-2.17,2.59
		c-0.84,1.03-1.78,1.54-2.8,1.54c-1.17,0-1.8-0.7-1.89-2.1c0-3.13,1.26-6.59,3.78-10.37c2.52-3.78,5.26-7.01,8.2-9.67
		c1.07-0.93,1.66-2.13,1.75-3.57c0.23-1.63,0.21-2.62-0.07-2.94c-0.19-0.23-0.87,0.09-2.03,0.98c-0.33,0.23-0.77,0.61-1.33,1.12
		c-0.56,0.51-0.93,0.84-1.12,0.98c-0.33,0.28-0.86,0.65-1.61,1.12c-0.47,0.23-0.89,0.35-1.26,0.35c-0.93,0-1.61-0.49-2.03-1.47
		c-0.7-1.59-0.7-3.34,0-5.26c0-0.05,0.02-0.1,0.07-0.18c0.05-0.07,0.09-0.13,0.14-0.18c0.05-0.05,0.07-0.09,0.07-0.14
		c0.37-0.37,0.82-0.49,1.33-0.35c0.61,0.28,0.79,0.72,0.56,1.33c-0.09,0.33-0.23,0.77-0.42,1.33c-0.33,1.45-0.3,2.41,0.07,2.87
		c0.09,0.09,0.19,0.12,0.28,0.07c0.09-0.05,0.28-0.18,0.56-0.39c0.28-0.21,0.47-0.34,0.56-0.39c0.19-0.14,0.54-0.44,1.05-0.91
		c0.51-0.47,0.93-0.82,1.26-1.05c1.63-1.26,2.92-1.89,3.85-1.89c1.12,0,1.82,0.65,2.1,1.96c0.14,1.22,0.16,2.24,0.07,3.08
		c0.14-0.05,0.32-0.16,0.53-0.35c0.21-0.19,0.36-0.3,0.46-0.35c0.09-0.09,0.54-0.4,1.33-0.91l2.59-1.89
		c0.19-0.09,0.44-0.26,0.77-0.49c0.33-0.23,0.51-0.37,0.56-0.42h0.07c1.31-0.65,2.13-0.98,2.45-0.98
		C123.29,123.25,123.5,123.39,123.59,123.67z M110.07,136.07l0.7-2.24l-1.89,2.17c-1.96,2.15-3.88,4.66-5.75,7.53
		c-1.87,2.87-2.87,5.31-3.01,7.32c-0.05,0.14-0.07,0.43-0.07,0.88c0,0.44,0.07,0.69,0.21,0.74c0.47,0.05,1.03-0.3,1.68-1.05
		C104.88,148.19,107.59,143.08,110.07,136.07z"/>
	<path class="st1" d="M136.83,122.9c0.37,0.09,0.7,0.28,0.98,0.56c0.19,0.19,0.19,0.44,0,0.77c-0.09,0.33-0.33,0.44-0.7,0.35
		c-1.17-0.47-2.85-0.33-5.04,0.42c-3.04,1.03-6.03,2.64-8.97,4.83c-0.09,0.09-0.23,0.19-0.42,0.28c0.05,0,0.14,0.02,0.28,0.07
		c0.14,0.05,0.26,0.08,0.35,0.11c0.09,0.02,0.16,0.03,0.21,0.03c2.01,0.33,2.99,1.64,2.94,3.92c0,1.12-0.21,2.24-0.63,3.36
		c-1.4,3.74-3.48,7.05-6.24,9.95c-0.65,0.7-1.4,1.31-2.24,1.82c-0.79,0.37-1.48,0.41-2.07,0.11c-0.58-0.3-0.97-0.88-1.16-1.72
		c-0.19-0.98-0.14-2.24,0.14-3.78c0.51-2.94,1.54-6.31,3.08-10.09c2.62-6.63,5.93-12.35,9.95-17.17c1.77-2.1,3.46-3.74,5.04-4.9
		c0.7-0.51,1.52-1,2.45-1.47c1.07-0.47,1.94-0.42,2.59,0.14c0.65,0.51,0.79,1.33,0.42,2.45c-0.19,0.56-0.37,1-0.56,1.33
		c-0.28,0.42-0.63,0.56-1.05,0.42c-0.61-0.19-0.87-0.56-0.77-1.12c0-0.09,0.02-0.25,0.07-0.46c0.05-0.21,0.09-0.39,0.14-0.53
		c-0.05-0.09-0.16-0.13-0.35-0.1c-0.19,0.02-0.33,0.08-0.42,0.18c-1.54,1.08-2.43,1.71-2.66,1.89c-3.64,3.27-7.01,7.8-10.09,13.59
		c0.05,0.05,0.16,0.07,0.35,0.07c0.19,0,0.33-0.02,0.42-0.07c2.71-1.59,4.74-2.73,6.1-3.43c1.73-0.93,3.55-1.54,5.47-1.82
		C135.2,122.85,135.99,122.85,136.83,122.9z M123.1,131.87c-0.94-0.14-1.87-0.14-2.8,0c-1.22,2.52-2.2,5.12-2.94,7.78
		c-0.19,0.61-0.63,2.34-1.33,5.18c-0.28,1.82-0.23,2.8,0.14,2.94c0.37,0.14,1.03-0.26,1.96-1.19c2.8-2.9,4.88-6.21,6.24-9.95
		c0.19-0.65,0.3-1.17,0.35-1.54c0.09-0.28,0.14-0.7,0.14-1.26C124.8,132.71,124.22,132.06,123.1,131.87z"/>
	<path class="st1" d="M155.12,123.74c0.09,0.19,0.09,0.35,0,0.49c-0.09,0.23-0.21,0.35-0.35,0.35c-1.54,0.47-3.62,1.87-6.24,4.2
		c-0.51,0.47-1.05,0.87-1.61,1.19c-1.5,0.89-2.52,0.51-3.08-1.12c-0.37-1.21-0.61-2.15-0.7-2.8l-0.21-0.21
		c-0.14,0-0.26,0.02-0.35,0.07l-0.35,0.35c-0.28,0.23-0.66,0.58-1.12,1.05c-0.47,0.47-0.84,0.82-1.12,1.05
		c-0.84,0.84-1.61,1.5-2.31,1.96c-0.47,0.37-0.93,0.63-1.4,0.77c-0.61,0.19-1.13,0.13-1.58-0.18c-0.44-0.3-0.71-0.76-0.81-1.37
		c-0.05-0.61,0-1.26,0.14-1.96c0.14-0.51,0.61-1.73,1.4-3.64c0.14-0.33,0.35-0.61,0.63-0.84c0.42-0.33,0.82-0.35,1.19-0.07
		c0.51,0.33,0.65,0.75,0.42,1.26c-0.75,1.54-1.17,2.41-1.26,2.59c-0.61,1.4-0.75,2.13-0.42,2.17c0.33,0.05,0.65-0.09,0.98-0.42
		c0.33-0.23,0.74-0.6,1.23-1.09c0.49-0.49,0.9-0.85,1.23-1.09c0.47-0.47,1.12-1.07,1.96-1.82c0.23-0.19,0.58-0.42,1.05-0.7
		c1.17-0.47,1.91-0.09,2.24,1.12c0.05,0.23,0.11,0.58,0.18,1.05c0.07,0.47,0.13,0.82,0.18,1.05c0.14,1.12,0.35,1.71,0.63,1.75
		c0.19,0.05,0.54-0.12,1.05-0.49c0.33-0.23,0.79-0.61,1.4-1.12c0.61-0.51,0.93-0.79,0.98-0.84c1.17-1.07,2.5-1.98,3.99-2.73
		c0.09-0.05,0.28-0.13,0.56-0.25c0.28-0.12,0.47-0.2,0.56-0.25C154.63,123.16,154.93,123.32,155.12,123.74z"/>
	<path class="st1" d="M168.24,128.97c0.03-0.04,0.05-0.07,0.08-0.1c1.34-2.57,3.76-4.49,6.37-5.91c-0.11-0.02-0.23-0.01-0.37,0.01
		c-0.47,0.09-0.82,0.21-1.05,0.35c-0.37,0.19-0.93,0.51-1.68,0.98c-1.64,1.03-3.36,2.59-5.18,4.69c-0.11,0.13-0.21,0.24-0.32,0.37
		c-0.05,0.07-0.09,0.14-0.14,0.21c-0.25,0.37-0.55,0.68-0.88,0.95c-1.39,1.58-2.4,2.66-3.01,3.24c-3.32,3.55-5.54,4.65-6.66,3.29
		c-0.98-1.07-1.17-3.27-0.56-6.59c0.09-0.65,0.56-2.76,1.4-6.31c0.19-0.84,0.65-1.73,1.4-2.66c4.44-5.46,8.31-11.79,11.63-18.99
		c0.47-1.03,0.91-2.27,1.33-3.71c0.19-0.42,0.23-0.93,0.14-1.54c-0.09-0.51-0.35-0.88-0.77-1.09c-0.42-0.21-0.84-0.18-1.26,0.1
		c-0.65,0.37-1.19,0.84-1.61,1.4c-1.17,1.54-2.1,2.87-2.8,3.99c-3.36,5.56-6.14,11.31-8.34,17.24c-0.65,1.68-1.33,2.8-2.03,3.36
		c-0.61,0.42-0.7,0.89-0.28,1.4c0.33,0.37,0.4,1.01,0.21,1.89c-0.79,2.8-1.22,5.18-1.26,7.15c0,1.12,0.09,2.13,0.28,3.01
		c0.23,1.31,0.78,2.34,1.65,3.08c0.86,0.75,1.9,0.86,3.12,0.35c0.93-0.33,1.63-0.65,2.1-0.98c1.31-0.98,2.36-1.87,3.15-2.66
		c0.27-0.23,1.17-1.21,2.68-2.91c0.01-0.02,0.02-0.03,0.03-0.05c0.54-0.73,1.09-1.46,1.68-2.15
		C167.57,129.92,167.88,129.44,168.24,128.97z M161.36,111.34c1.73-3.6,3.46-6.73,5.18-9.39l1.75-2.59
		c-0.37,1.08-0.91,2.29-1.61,3.64v0.07c-1.4,2.85-3.06,5.79-4.98,8.83c-0.09,0.09-0.2,0.23-0.32,0.42c-0.12,0.19-0.18,0.3-0.18,0.35
		c-0.23,0.37-0.37,0.56-0.42,0.56c-0.56,0.7-0.87,1.08-0.91,1.12L161.36,111.34z"/>
	<path class="st1" d="M221.95,109.13c-1.03-0.65-2.13-1.12-3.29-1.4c-2.8-0.79-6.12-0.98-9.95-0.56c-3.36,0.33-6.66,0.96-9.88,1.89
		c-0.05,0-0.16,0.05-0.35,0.14c-0.28,0.09-0.47,0.14-0.56,0.14c-0.14,0-0.19-0.09-0.14-0.28c0.09-0.37,0.19-0.89,0.28-1.54
		c0.09-0.7-0.14-1.12-0.7-1.26c-0.61-0.19-1.03-0.02-1.26,0.49c-0.05,0.14-0.14,0.34-0.28,0.6c-0.14,0.26-0.26,0.43-0.35,0.53
		c-0.47,1.12-0.82,1.99-1.05,2.59c-0.19,0.09-0.43,0.2-0.74,0.32c-0.3,0.12-0.48,0.18-0.53,0.18c-6.96,2.8-13.41,6.24-19.34,10.3
		c-0.88,0.61-2.09,1.54-3.62,2.77c-0.08,0.11-0.15,0.21-0.23,0.32c-0.46,0.57-1.02,1.03-1.54,1.54c-0.07,0.07-0.15,0.12-0.23,0.18
		c-0.04,0.06-0.08,0.13-0.13,0.19c-0.04,0.06-0.07,0.11-0.11,0.17c-0.06,0.09-0.13,0.16-0.19,0.24c-0.14,0.22-0.29,0.45-0.42,0.67
		c-0.46,0.75-0.9,1.51-1.4,2.24c-0.14,0.2-0.29,0.38-0.44,0.55c-0.02,0.28,0.01,0.55,0.16,0.8c0.16,0.29,0.42,0.46,0.73,0.59
		c0.3-0.41,0.62-0.8,0.95-1.19c0.27-0.46,0.57-0.91,0.91-1.35c0.04-0.05,0.08-0.1,0.11-0.14c1.65-3.1,4.86-5.26,8.06-6.73
		c4.75-3.17,10.07-6.04,15.97-8.62c0.42-0.14,0.68-0.14,0.77,0c0,0.23-0.02,0.42-0.07,0.56c-1.54,3.92-2.5,6.24-2.87,6.94
		l-2.73,5.68c-0.37,0.79-0.91,1.95-1.61,3.47c-0.7,1.52-1.22,2.65-1.54,3.4c-0.05,0.14-0.13,0.36-0.25,0.67
		c-0.12,0.3-0.2,0.53-0.25,0.67c-0.19,0.65,0.05,1.19,0.7,1.61c0.05,0.05,0.12,0.11,0.21,0.18c0.09,0.07,0.16,0.13,0.21,0.18
		c-0.05,0.14-0.1,0.35-0.18,0.63c-0.07,0.28-0.1,0.47-0.1,0.56c-0.19,0.47-0.44,1.2-0.77,2.21c-0.33,1.01-0.56,1.76-0.7,2.28
		c-0.09,0.23-0.21,0.57-0.35,1.02c-0.14,0.44-0.28,0.84-0.42,1.19c-0.14,0.35-0.3,0.67-0.49,0.95c-0.23,0.37-0.41,0.96-0.53,1.75
		c-0.12,0.79-0.22,1.33-0.32,1.61c-1.5,4.48-2.55,7.87-3.15,10.16c-0.47,1.36-1.24,2.27-2.31,2.73c-0.28,0.19-0.65,0.43-1.12,0.74
		c-0.47,0.3-0.89,0.6-1.26,0.88c-1.4,1.17-2.64,2.29-3.71,3.36c-0.61,0.56-1.19,1.31-1.75,2.24c-0.75,1.35-0.9,2.58-0.46,3.68
		c0.44,1.1,1.41,1.88,2.91,2.35c0.89,0.19,1.49,0.3,1.82,0.35h1.12c-0.09,0.33-0.21,0.78-0.35,1.37c-0.14,0.58-0.27,1.11-0.39,1.58
		c-0.12,0.47-0.22,0.89-0.32,1.26c-0.09,0.56-0.14,0.98-0.14,1.26c0,0.7,0.33,1.05,0.98,1.05c0.28,0,0.51-0.09,0.7-0.28
		c0.19-0.19,0.28-0.44,0.28-0.77c0-0.37,0.02-0.76,0.07-1.16c0.05-0.4,0.1-0.75,0.18-1.05c0.07-0.3,0.18-0.69,0.32-1.16
		c0.14-0.47,0.23-0.82,0.28-1.05c0.09-0.47,0.19-0.82,0.28-1.05c5.37-0.89,10.49-2.87,15.34-5.96c2.06-1.21,3.97-2.76,5.75-4.62
		c1.35-1.4,2.36-2.94,3.01-4.62c0.98-2.8,0.68-5.42-0.91-7.85c-0.79-1.21-1.87-2.27-3.22-3.15c-2.15-1.49-4.81-2.52-7.99-3.08
		c-0.14,0-0.37-0.06-0.7-0.18c-0.33-0.12-0.63-0.2-0.91-0.25c0.28-0.14,0.62-0.32,1.02-0.53c0.4-0.21,0.69-0.36,0.88-0.46
		c3.83-1.77,6.7-3.13,8.62-4.06c6.73-3.27,12.33-6.59,16.82-9.95c2.8-2.01,5.09-3.92,6.87-5.75c1.45-1.45,2.62-2.9,3.5-4.34
		c0.84-1.21,1.45-2.57,1.82-4.06C225.67,113.46,224.66,110.96,221.95,109.13z M173.68,173.74c0,0.05-0.68,0.07-2.03,0.07
		c-1.54-0.23-2.48-0.79-2.8-1.68c-0.19-0.51-0.12-1.1,0.21-1.75c0.51-1.12,1.56-2.43,3.15-3.92c0.23-0.19,1.54-1.17,3.92-2.94
		l0.42-0.21c-0.33,1.08-0.82,2.8-1.47,5.18C174.42,170.86,173.96,172.62,173.68,173.74z M193.86,150.47
		c1.17,0.75,2.13,1.66,2.87,2.73c1.49,2.06,1.75,4.25,0.77,6.59c-0.42,1.22-1.1,2.34-2.03,3.36c-1.64,1.64-2.78,2.69-3.43,3.15
		c-4.3,3.41-9.11,5.75-14.43,7.01c-0.84,0.19-1.5,0.28-1.96,0.28c0.09-0.65,0.19-1.1,0.28-1.33c0.37-1.45,1.19-4.44,2.45-8.97
		c0.23-0.84,0.68-1.42,1.33-1.75c4.44-2.15,7.54-3.43,9.32-3.85l0.21-0.07c0.14-0.05,0.23-0.09,0.28-0.14
		c0.23-0.33,0.35-0.58,0.35-0.77c-0.05-0.23-0.21-0.44-0.49-0.63c-0.28-0.14-0.59-0.16-0.91-0.07c-0.7,0.19-1.5,0.44-2.38,0.77
		c-0.61,0.23-1.51,0.62-2.7,1.16c-1.19,0.54-2.09,0.95-2.7,1.23c-0.19,0.09-0.51,0.23-0.98,0.42c0.09-0.84,0.61-2.78,1.54-5.82
		c0.93-3.04,1.63-5.09,2.1-6.17h1.54C188.34,147.88,191.33,148.84,193.86,150.47z M223.14,116c-0.23,1.12-0.7,2.29-1.4,3.5
		c-1.12,1.68-2.24,3.08-3.36,4.2c-1.68,1.68-3.88,3.55-6.59,5.61c-4.34,3.27-9.67,6.47-15.98,9.6c-1.12,0.51-2.8,1.3-5.05,2.35
		c-2.24,1.05-3.92,1.86-5.04,2.42c-0.28,0.14-0.72,0.3-1.33,0.49c0.09-0.23,0.19-0.55,0.28-0.95c0.09-0.4,0.19-0.69,0.28-0.88
		c0.14-0.42,0.71-2.08,1.72-4.97c1-2.9,1.65-4.74,1.93-5.54c0.28-0.79,0.85-2.37,1.72-4.73c0.86-2.36,1.56-4.18,2.1-5.47
		c0.54-1.28,1.2-2.85,2-4.69c0.79-1.84,1.59-3.56,2.38-5.15c1.77-0.65,4.11-1.28,7.01-1.89c2.66-0.56,5.04-0.86,7.15-0.91
		c2.52-0.14,4.83,0.05,6.94,0.56c1.03,0.19,2.08,0.63,3.15,1.33C222.86,112.15,223.56,113.85,223.14,116z"/>
	<path class="st1" d="M223.21,142.28c0.19,0.23,0.23,0.51,0.14,0.84c-0.05,0.19-0.21,0.42-0.49,0.7c-2.52,2.15-4.02,3.41-4.48,3.78
		c-0.66,0.56-1.57,1.17-2.73,1.82c-0.61,0.33-1.22,0.51-1.82,0.56c-1.73,0.19-2.87-0.54-3.43-2.17c0-0.09-0.02-0.25-0.07-0.46
		c-0.05-0.21-0.08-0.4-0.1-0.56c-0.02-0.16-0.03-0.32-0.03-0.46c0.14-2.57,0.84-4.74,2.1-6.52c0.19-0.33,0.49-0.61,0.91-0.84
		c0.56-0.42,1.07-0.3,1.54,0.35c0.14,0.23,0.19,0.49,0.14,0.77c0,0.23-0.14,0.47-0.42,0.7c-1.5,1.22-2.24,3.18-2.24,5.89
		c0,1.4,0.68,1.85,2.03,1.33c0.98-0.37,1.82-0.82,2.52-1.33c0.47-0.37,1.13-0.93,2-1.68c0.86-0.75,1.44-1.24,1.72-1.47
		c0.33-0.23,0.77-0.63,1.33-1.19c0.19-0.19,0.4-0.28,0.63-0.28C222.82,142.07,223.07,142.14,223.21,142.28z M214.67,137.79
		c-0.56-0.23-0.77-0.63-0.63-1.19c0.33-1.03,0.86-2.03,1.61-3.01c0.33-0.42,0.72-0.47,1.19-0.14c0.09,0.05,0.28,0.28,0.56,0.7
		c0,0.14-0.05,0.35-0.14,0.63c-0.14,0.28-0.36,0.7-0.67,1.26c-0.3,0.56-0.53,0.98-0.67,1.26
		C215.65,137.82,215.23,137.98,214.67,137.79z"/>
	<path class="st1" d="M245.07,121.26c0.61,0.09,0.86,0.44,0.77,1.05c-0.09,0.51-0.37,0.77-0.84,0.77h-1.12
		c-2.48,0-4.32,0.02-5.54,0.07c-0.23,0-0.59,0.04-1.05,0.1c-0.47,0.07-0.72,0.11-0.77,0.11c-0.09,0.19-0.23,0.42-0.42,0.7
		c-0.19,0.28-0.33,0.51-0.42,0.7c-3.22,5.56-6.75,10.74-10.58,15.56c-0.47,0.65-0.79,1.24-0.98,1.75c-1.08,3.27-1.71,6.12-1.89,8.55
		c0,1.17,0.05,2.06,0.14,2.66c0,0.23,0.09,0.59,0.28,1.05c0.37,0.89,1,1.19,1.89,0.91c0.7-0.23,1.35-0.54,1.96-0.91
		c1.21-0.79,2.24-1.59,3.08-2.38c2.76-2.38,5.18-5.02,7.29-7.92c0.47-0.65,0.84-1.14,1.12-1.47c0.19-0.28,0.44-0.37,0.77-0.28
		c0.33,0,0.54,0.19,0.63,0.56c0.14,0.33,0.09,0.61-0.14,0.84c-0.28,0.37-0.69,0.89-1.23,1.54c-0.54,0.65-0.95,1.17-1.23,1.54
		c-2.52,3.18-5.02,5.75-7.5,7.71c-1.08,0.84-2.13,1.52-3.15,2.03c-1.73,0.65-3.05,0.67-3.96,0.03c-0.91-0.63-1.46-1.67-1.65-3.12
		c-0.23-2.01-0.02-4.37,0.63-7.08c0.05-0.28,0.1-0.56,0.18-0.84c0.07-0.28,0.15-0.6,0.25-0.95c0.09-0.35,0.16-0.64,0.21-0.88
		c-0.05-0.09-0.14-0.21-0.28-0.35c-0.14-0.14-0.23-0.26-0.28-0.35c-0.37-0.37-0.4-0.82-0.07-1.33c0.28-0.37,0.7-0.89,1.26-1.54
		c0.47-0.47,0.86-1.12,1.19-1.96c1.68-4.48,3.62-8.85,5.82-13.1c0.05-0.05,0.07-0.1,0.07-0.18c0-0.07,0.02-0.13,0.07-0.18l0.49-0.98
		h-1.12h-0.35c-0.52,0-1.3,0.01-2.35,0.04c-1.05,0.02-1.83,0.03-2.35,0.03c-0.56,0-0.98-0.02-1.26-0.07
		c-0.56-0.09-0.84-0.42-0.84-0.98c0-0.61,0.28-0.96,0.84-1.05h1.26c0.79-0.05,2-0.08,3.61-0.11c1.61-0.02,2.84-0.03,3.68-0.03
		c0.37-0.56,0.68-0.98,0.91-1.26c1.68-2.62,2.99-4.55,3.92-5.82c0.23-0.33,0.86-0.96,1.89-1.89c0.56-0.47,1.12-0.51,1.68-0.14
		c0.61,0.28,0.86,0.77,0.77,1.47c-0.05,0.56-0.21,1.26-0.49,2.1c-0.28,0.84-0.79,2.06-1.54,3.64c-0.05,0.14-0.13,0.36-0.25,0.67
		c-0.12,0.3-0.22,0.57-0.32,0.81h5.82C243.93,121.12,244.42,121.16,245.07,121.26z M227.14,134.08c2.1-2.43,4.32-5.98,6.66-10.65
		c-0.51,0-0.86,0.02-1.05,0.07c-0.28,0.09-0.44,0.23-0.49,0.42c-1.12,1.96-2.1,3.81-2.94,5.54v0.07L227.14,134.08z M237.51,116
		c0.14-0.75-0.7,0.33-2.52,3.22l-1.4,2.24h1.54l0.98-1.96v-0.07c0.19-0.33,0.39-0.74,0.6-1.23c0.21-0.49,0.39-0.85,0.53-1.09
		C237.32,116.84,237.41,116.47,237.51,116z"/>
	<path class="st1" d="M253.55,142.7c0.14,0.37,0.05,0.7-0.28,0.98c-0.05,0-0.07,0.01-0.07,0.03c0,0.02-0.02,0.04-0.07,0.04
		l-0.35,0.14c-0.05,0-0.09,0.02-0.14,0.07c-0.42,0.19-1.66,0.79-3.71,1.82c-0.37,0.19-0.96,0.49-1.75,0.91
		c-0.79,0.42-1.41,0.75-1.86,0.98c-0.44,0.23-1.02,0.48-1.72,0.74c-0.7,0.26-1.36,0.46-1.96,0.6c-1.78,0.28-3.06,0.19-3.85-0.28
		c-0.94-0.56-1.35-1.42-1.26-2.59c0-0.37,0.04-0.75,0.1-1.12c0.07-0.37,0.16-0.79,0.28-1.26c0.12-0.47,0.2-0.84,0.25-1.12
		c0-0.05,0.02-0.09,0.07-0.14c0.19-0.19,0.57-0.63,1.16-1.33c0.58-0.7,1.02-1.2,1.3-1.51c0.28-0.3,0.69-0.68,1.23-1.12
		c0.54-0.44,1.06-0.81,1.58-1.09c0.19-0.09,0.51-0.23,0.98-0.42c0.14-0.09,0.35-0.19,0.63-0.28c0.93-0.19,1.59,0,1.96,0.56
		c0.42,0.61,0.44,1.22,0.07,1.82c-0.23,0.47-0.61,1-1.12,1.61c-1.4,1.45-3.13,2.48-5.19,3.08c-0.61,0.09-1,0.3-1.19,0.63
		c-0.38,0.98-0.44,1.73-0.21,2.24c0.28,0.61,0.98,0.87,2.1,0.77c0.14,0,0.23-0.02,0.28-0.07c1.73-0.23,4.13-1.21,7.22-2.94
		c2.01-1.07,3.22-1.7,3.64-1.89c0.28-0.14,0.61-0.26,0.98-0.35C253.11,142.11,253.41,142.28,253.55,142.7z M244.44,138.28
		c-0.42-0.05-1.03,0.26-1.82,0.91c-0.79,0.65-1.47,1.31-2.03,1.96l-0.84,1.05c3.5-1.91,5.14-3.18,4.9-3.78L244.44,138.28z"/>
	<path class="st1" d="M264.55,142.42c0.23,0.37,0.12,0.72-0.35,1.05c-0.47,0.23-0.73,0.37-0.77,0.42c-3.08,1.73-5.72,3.69-7.92,5.89
		c-0.05,0.05-0.1,0.09-0.18,0.14c-0.07,0.05-0.14,0.12-0.21,0.21c-0.07,0.09-0.13,0.16-0.18,0.21c0.14,0.98,0.3,2.34,0.49,4.06
		c0.33,2.29,0.28,4.67-0.14,7.15c-0.28,1.68-0.87,3.25-1.75,4.69c-0.79,1.08-1.68,1.87-2.66,2.38c-1.26,0.61-2.42,0.63-3.47,0.07
		c-1.05-0.56-1.67-1.54-1.86-2.94c-0.14-1.07-0.07-2.15,0.21-3.22c0.47-1.78,1.08-3.32,1.82-4.62c1.12-2.24,2.62-4.41,4.48-6.52
		c0.61-0.7,0.79-1.45,0.56-2.24c-0.23-0.7-0.49-1.75-0.77-3.15c-0.14-1.03-0.19-1.91-0.14-2.66c0.09-1.35,0.7-2.41,1.82-3.15
		c0.47-0.33,0.93-0.35,1.4-0.07c0.56,0.23,0.79,0.68,0.7,1.33c0.09,0.47-0.09,0.79-0.56,0.98c-0.47,0.19-0.84,0.33-1.12,0.42
		c-0.33,1.31-0.12,3.2,0.63,5.68c0.14-0.09,0.34-0.25,0.6-0.46c0.26-0.21,0.46-0.39,0.6-0.53c1.59-1.4,3.83-3.01,6.73-4.83
		c0.37-0.28,0.68-0.47,0.91-0.56C263.99,141.9,264.37,142,264.55,142.42z M253.48,161.69c0.42-2.2,0.49-4.39,0.21-6.59
		c-0.05-0.33-0.12-0.83-0.21-1.51c-0.09-0.68-0.16-1.11-0.21-1.3c-0.09,0.05-0.23,0.16-0.42,0.35c-2.57,3.04-4.34,6.07-5.32,9.11
		c-0.42,1.22-0.58,2.27-0.49,3.15c0,0.42,0.07,0.84,0.21,1.26c0.42,1.26,1.28,1.66,2.59,1.19c0.79-0.28,1.52-0.89,2.17-1.82
		C252.76,164.42,253.25,163.13,253.48,161.69z"/>
</g>
<path class="st1" d="M167.42,137.7c-0.02-0.01-0.15,0.01-0.16,0l-4.51,15.49c-0.12,0.42,0.02,0.84,0.33,0.93
	c0.3,0.09,0.65-0.19,0.77-0.61l4.53-15.53C168.01,137.93,167.78,137.8,167.42,137.7z"/>
<circle class="st1" cx="169.68" cy="131.62" r="7.28"/>
<g>
	<path class="st2" d="M176.47,134.34c-0.17,0.49-0.63,1.61-0.98,1.98c-0.35,0.37-0.99,0.54-1.39,0.21c-0.39-0.32-0.49-1.03-1-1.08
		c-0.41-0.04-0.75,0.45-1.16,0.38c-0.57-0.09-0.48-0.96-0.81-1.43c-0.37-0.52-1.17-0.43-1.77-0.2c-0.6,0.23-1.26,0.55-1.84,0.29
		c-0.65-0.28-0.89-1.16-1.54-1.45c-0.99-0.43-2.12,0.75-3.13,0.37c-0.77-0.28-0.97-1.31-0.76-2.1c0.21-0.79,0.32-0.97,0.6-1.74
		c1.5-4.11,4.67-6.42,9.03-4.95C176.64,126.29,177.65,130.85,176.47,134.34z"/>
	<g>
		<path class="st0" d="M175.87,134.18c-0.18,0.51-0.41,1.33-0.82,1.71c-0.65,0.58-0.96-0.68-1.49-0.94
			c-0.24-0.12-0.53-0.15-0.79-0.08c-0.11,0.03-0.63,0.35-0.69,0.31c-0.13-0.07-0.23-0.78-0.32-0.95c-0.17-0.31-0.42-0.54-0.74-0.68
			c-0.67-0.3-1.39-0.1-2.04,0.14c-0.39,0.15-0.88,0.42-1.29,0.19c-0.3-0.17-0.49-0.57-0.72-0.83c-0.44-0.5-1-0.76-1.66-0.71
			c-0.67,0.05-1.37,0.6-2.03,0.53c-1.5-0.16,0.03-3.23,0.34-3.91c0.56-1.22,1.36-2.39,2.47-3.17c2.41-1.68,5.83-1,7.97,0.83
			C176.25,128.5,176.74,131.52,175.87,134.18c-0.25,0.77,0.95,1.09,1.21,0.33c0.93-2.83,0.47-6.07-1.61-8.28
			c-2.26-2.39-6.26-3.47-9.28-1.96c-1.42,0.72-2.53,1.97-3.29,3.35c-0.44,0.79-0.75,1.65-1.07,2.49c-0.3,0.78-0.56,1.6-0.36,2.44
			c0.17,0.76,0.7,1.38,1.48,1.53c0.87,0.16,1.54-0.38,2.36-0.49c0.82-0.11,1.18,1.04,1.84,1.4c0.98,0.54,1.82-0.1,2.78-0.31
			c0.67-0.15,0.75,0.2,0.94,0.74c0.12,0.36,0.29,0.72,0.64,0.9c0.39,0.21,0.81,0.13,1.19-0.05c0.32-0.16,0.26-0.23,0.47,0
			c0.12,0.13,0.19,0.33,0.31,0.47c0.61,0.77,1.71,0.75,2.41,0.09c0.62-0.58,0.94-1.54,1.22-2.32
			C177.34,133.75,176.13,133.42,175.87,134.18z"/>
	</g>
</g>
<g>
	<g>
		<path class="st0" d="M165.74,143.47c-0.68-0.75-2.65-2.09-3.47-0.82c-0.32,0.49-0.37,1.36-0.05,1.86c0.32,0.5,0.98,0.66,1.54,0.6
			c0.81-0.09,1.51-0.6,2.23-0.93c0.82-0.38,1.8-0.73,2.72-0.62c0.6,0.07,0.56,0.53,0.12,0.81c-0.38,0.23-0.9,0.27-1.32,0.19
			c-0.72-0.14-1.36-0.76-2.13-0.43c-0.67,0.28-1.24,1.07-1.67,1.63c-0.54,0.71-0.96,1.5-1.28,2.33c0.23,0.03,0.46,0.07,0.7,0.1
			c0.28-1.03,0.84-2.29,1.8-2.86c0.51-0.3,1.12-0.25,1.47,0.25c0.28,0.39,0.43,0.87,0.7,1.28c1.01,1.54,2.8,2.65,4.68,2.39
			c0.41-0.06,0.54-0.63,0.06-0.56c-1.14,0.16-2.21-0.27-3.07-1c-0.42-0.36-0.79-0.79-1.08-1.27c-0.28-0.45-0.43-1-0.8-1.37
			c-0.71-0.72-1.86-0.51-2.6,0.04c-0.94,0.7-1.55,1.9-1.85,3.01c-0.11,0.42,0.57,0.42,0.7,0.1c0.26-0.69,0.6-1.34,1.02-1.95
			c0.19-0.27,0.39-0.53,0.61-0.78c0.22-0.25,0.47-0.61,0.77-0.77c0.39-0.21,0.78,0.1,1.15,0.25c0.31,0.12,0.63,0.19,0.96,0.21
			c0.59,0.03,1.27-0.1,1.74-0.46c0.35-0.27,0.69-0.75,0.48-1.2c-0.26-0.56-1.08-0.53-1.59-0.5c-0.71,0.04-1.4,0.23-2.07,0.49
			c-0.73,0.29-1.41,0.8-2.17,1.01c-0.36,0.1-0.79,0.09-1.06-0.21c-0.27-0.3-0.24-0.83-0.14-1.2c0.09-0.34,0.31-0.4,0.64-0.31
			c0.19,0.05,0.38,0.13,0.56,0.21c0.4,0.19,0.76,0.48,1.06,0.81C165.32,144.06,166,143.75,165.74,143.47L165.74,143.47z"/>
	</g>
</g>
<g>
	<path class="st0" d="M169.11,128.29c0,0.06,0,0.11,0,0.17"/>
	<g>
		<path class="st0" d="M168.74,128.32c0,0.06,0,0.11,0,0.17c-0.01,0.04,0,0.07,0.02,0.1c0.01,0.03,0.04,0.06,0.07,0.08
			c0.03,0.02,0.07,0.04,0.11,0.05c0.04,0.01,0.09,0.02,0.14,0.01c0.03-0.01,0.07-0.01,0.1-0.02c0.06-0.02,0.12-0.04,0.17-0.08
			c0.02-0.02,0.04-0.04,0.06-0.06c0.03-0.04,0.06-0.08,0.06-0.14c0-0.06,0-0.11,0-0.17c0.01-0.04,0-0.07-0.02-0.1
			c-0.01-0.03-0.04-0.06-0.07-0.08c-0.03-0.02-0.07-0.04-0.11-0.05c-0.04-0.01-0.09-0.02-0.14-0.01c-0.03,0.01-0.07,0.01-0.1,0.02
			c-0.06,0.02-0.12,0.04-0.17,0.08c-0.02,0.02-0.04,0.04-0.06,0.06C168.77,128.22,168.75,128.27,168.74,128.32L168.74,128.32z"/>
	</g>
</g>
<g>
	<path class="st0" d="M167.04,126.7"/>
	<g>
		<path class="st0" d="M167.01,126.98c0.42,0,0.55-0.56,0.06-0.56C166.64,126.42,166.52,126.98,167.01,126.98L167.01,126.98z"/>
	</g>
</g>
<g>
	<path class="st0" d="M168.43,129.41c0,0.07,0,0.14,0,0.2"/>
	<g>
		<path class="st0" d="M168.06,129.45c0,0.07,0,0.14,0,0.2c-0.01,0.03,0,0.06,0.01,0.08c0.01,0.03,0.03,0.05,0.06,0.06
			c0.03,0.02,0.07,0.03,0.11,0.03c0.04,0.01,0.09,0.01,0.13,0c0.03-0.01,0.07-0.01,0.1-0.02c0.06-0.02,0.12-0.04,0.18-0.08
			c0.02-0.02,0.04-0.03,0.07-0.05c0.03-0.03,0.06-0.07,0.07-0.11c0-0.07,0-0.14,0-0.2c0.01-0.03,0-0.06-0.01-0.08
			c-0.01-0.03-0.03-0.05-0.06-0.06c-0.03-0.02-0.07-0.03-0.11-0.03c-0.04-0.01-0.09-0.01-0.13,0c-0.03,0.01-0.07,0.01-0.1,0.02
			c-0.06,0.02-0.12,0.04-0.18,0.08c-0.02,0.02-0.04,0.03-0.07,0.05C168.1,129.37,168.08,129.41,168.06,129.45L168.06,129.45z"/>
	</g>
</g>
<g>
	<path class="st0" d="M165.55,129.28"/>
	<g>
		<path class="st0" d="M165.51,129.53c0.41,0,0.56-0.51,0.07-0.51C165.18,129.02,165.02,129.53,165.51,129.53L165.51,129.53z"/>
	</g>
</g>
<g>
	<path class="st0" d="M171.41,129.99c-0.01-0.19,0.01-0.39,0.07-0.57"/>
	<g>
		<path class="st0" d="M171.77,129.89c0-0.04,0-0.08,0-0.12c0,0.02,0,0.03,0,0.05c0-0.15,0.03-0.31,0.08-0.46
			c0.02-0.05-0.03-0.1-0.07-0.12c-0.07-0.03-0.17-0.03-0.24-0.02c-0.09,0.01-0.19,0.04-0.27,0.09c-0.06,0.04-0.12,0.08-0.14,0.14
			c-0.07,0.2-0.09,0.41-0.08,0.62c0,0.06,0.1,0.08,0.14,0.09c0.08,0.02,0.19,0,0.27-0.02c0.08-0.02,0.18-0.06,0.24-0.12
			c0.02-0.02,0.03-0.03,0.05-0.05C171.77,129.96,171.78,129.93,171.77,129.89L171.77,129.89z"/>
	</g>
</g>
<g>
	<path class="st0" d="M166.7,128.23c-0.01,0.17,0.03,0.35,0.11,0.5"/>
	<g>
		<path class="st0" d="M166.34,128.32c-0.01,0.17,0.03,0.35,0.11,0.5c0.02,0.04,0.09,0.04,0.12,0.04c0.09,0,0.18-0.02,0.26-0.04
			c0.08-0.02,0.17-0.05,0.25-0.1c0.02-0.01,0.03-0.02,0.05-0.03c0.02-0.01,0.04-0.04,0.04-0.06c-0.08-0.16-0.11-0.33-0.11-0.5
			c0-0.04-0.12-0.04-0.12-0.04c-0.09,0-0.18,0.02-0.26,0.04c-0.08,0.02-0.17,0.05-0.25,0.1
			C166.39,128.25,166.34,128.27,166.34,128.32L166.34,128.32z"/>
	</g>
</g>
<g>
	<path class="st0" d="M170.36,127.41"/>
	<g>
		<path class="st0" d="M170.33,127.69c0.42,0,0.55-0.55,0.06-0.55C169.97,127.14,169.84,127.69,170.33,127.69L170.33,127.69z"/>
	</g>
</g>
<g>
	<path class="st0" d="M173.34,130.77c0-0.08,0-0.16,0-0.24"/>
	<g>
		<path class="st0" d="M173.7,130.67c0-0.08,0-0.16,0-0.24c-0.01-0.02-0.02-0.04-0.05-0.05c-0.03-0.02-0.06-0.03-0.09-0.03
			c-0.04-0.01-0.08,0-0.12,0c-0.05,0-0.1,0.01-0.14,0.02c-0.03,0.01-0.06,0.02-0.09,0.03c-0.05,0.02-0.1,0.05-0.15,0.08
			c-0.02,0.01-0.03,0.03-0.05,0.04c-0.02,0.02-0.03,0.05-0.03,0.09c0,0.08,0,0.16,0,0.24c0.01,0.02,0.02,0.04,0.05,0.05
			c0.03,0.02,0.06,0.03,0.09,0.03c0.04,0.01,0.08,0,0.12,0c0.05,0,0.1-0.01,0.14-0.02c0.03-0.01,0.06-0.02,0.09-0.03
			c0.05-0.02,0.1-0.05,0.15-0.08c0.02-0.01,0.03-0.03,0.05-0.04C173.7,130.73,173.71,130.7,173.7,130.67L173.7,130.67z"/>
	</g>
</g>
<g>
	<path class="st0" d="M172.99,127.96c0.14,0.24,0.28,0.47,0.42,0.71"/>
	<g>
		<path class="st0" d="M172.63,128.06c0.14,0.24,0.28,0.47,0.42,0.71c0.03,0.04,0.08,0.05,0.13,0.05c0.09,0,0.18-0.01,0.26-0.04
			c0.08-0.02,0.17-0.05,0.25-0.1c0.02-0.02,0.11-0.07,0.09-0.1c-0.14-0.24-0.28-0.47-0.42-0.71c-0.03-0.04-0.08-0.05-0.13-0.05
			c-0.09,0-0.18,0.01-0.26,0.04c-0.08,0.02-0.17,0.05-0.25,0.1C172.69,127.97,172.61,128.02,172.63,128.06L172.63,128.06z"/>
	</g>
</g>
<g>
	<path class="st0" d="M171.99,126.5"/>
	<g>
		<path class="st0" d="M171.75,126.63c0.14,0,0.81-0.27,0.48-0.27C172.08,126.36,171.41,126.63,171.75,126.63L171.75,126.63z"/>
	</g>
</g>
<g>
	<path class="st0" d="M171.99,126.46"/>
	<g>
		<path class="st0" d="M171.84,126.65c0.24,0,0.78-0.36,0.29-0.36C171.89,126.28,171.35,126.65,171.84,126.65L171.84,126.65z"/>
	</g>
</g>
<g>
	<path class="st0" d="M169.88,128.67"/>
	<g>
		<path class="st0" d="M169.73,128.83c0.22,0,0.78-0.33,0.3-0.33C169.81,128.5,169.25,128.83,169.73,128.83L169.73,128.83z"/>
	</g>
</g>
<g>
	<path class="st0" d="M174.76,129.68"/>
	<g>
		<path class="st0" d="M174.62,129.89c0.28,0,0.77-0.42,0.28-0.42C174.62,129.47,174.14,129.89,174.62,129.89L174.62,129.89z"/>
	</g>
</g>
<g>
	<path class="st0" d="M174.73,131.14"/>
	<g>
		<path class="st0" d="M174.7,131.42c0.43,0,0.55-0.56,0.06-0.56C174.33,130.86,174.21,131.42,174.7,131.42L174.7,131.42z"/>
	</g>
</g>
<g>
	<path class="st0" d="M168.97,126.02c0,0.16,0,0.32,0,0.47"/>
	<g>
		<path class="st0" d="M168.6,126.05c0,0.16,0,0.32,0,0.47c-0.01,0.04,0,0.07,0.02,0.1c0.01,0.04,0.04,0.06,0.07,0.08
			c0.03,0.03,0.07,0.04,0.11,0.05c0.04,0.01,0.09,0.02,0.14,0.01c0.1-0.01,0.2-0.04,0.27-0.1c0.02-0.02,0.04-0.04,0.06-0.06
			c0.03-0.04,0.06-0.09,0.06-0.14c0-0.16,0-0.32,0-0.47c0.01-0.04,0-0.07-0.02-0.1c-0.01-0.04-0.04-0.06-0.07-0.08
			c-0.03-0.03-0.07-0.04-0.11-0.05c-0.04-0.01-0.09-0.02-0.14-0.01c-0.1,0.01-0.2,0.04-0.27,0.1c-0.02,0.02-0.04,0.04-0.06,0.06
			C168.63,125.95,168.61,126,168.6,126.05L168.6,126.05z"/>
	</g>
</g>
</svg>
